<?xml version="1.0" encoding="utf-8"?>
<!-- Generator: Adobe Illustrator 16.0.0, SVG Export Plug-In . SVG Version: 6.00 Build 0)  -->
<!DOCTYPE svg PUBLIC "-//W3C//DTD SVG 1.1//EN" "http://www.w3.org/Graphics/SVG/1.1/DTD/svg11.dtd">
<svg version="1.1" id="Calque_1" xmlns="http://www.w3.org/2000/svg" xmlns:xlink="http://www.w3.org/1999/xlink" x="0px" y="0px"
	 width="438px" height="26px" viewBox="0 0 438 26" style="enable-background:new 0 0 438 26;" xml:space="preserve">
<style type="text/css">
<![CDATA[
	.st0{clip-path:url(#SVGID_10_);fill:#143D86;}
	.st1{clip-path:url(#SVGID_10_);fill:#143E87;}
	.st2{clip-path:url(#SVGID_14_);fill:#D40637;}
	.st3{clip-path:url(#SVGID_10_);fill:#153B83;}
	.st4{clip-path:url(#SVGID_10_);fill:#153C84;}
	.st5{clip-path:url(#SVGID_10_);fill:#153D85;}
	.st6{clip-path:url(#SVGID_14_);fill:#D50637;}
	.st7{clip-path:url(#SVGID_10_);fill:#163981;}
	.st8{clip-path:url(#SVGID_10_);fill:#163A82;}
	.st9{clip-path:url(#SVGID_14_);fill:#D60637;}
	.st10{clip-path:url(#SVGID_10_);fill:#17367E;}
	.st11{clip-path:url(#SVGID_10_);fill:#17377F;}
	.st12{clip-path:url(#SVGID_10_);fill:#173880;}
	.st13{clip-path:url(#SVGID_14_);fill:#D70537;}
	.st14{clip-path:url(#SVGID_10_);fill:#18347C;}
	.st15{clip-path:url(#SVGID_10_);fill:#18357D;}
	.st16{clip-path:url(#SVGID_14_);fill:#D80537;}
	.st17{clip-path:url(#SVGID_10_);fill:#193179;}
	.st18{clip-path:url(#SVGID_10_);fill:#19327A;}
	.st19{clip-path:url(#SVGID_10_);fill:#19337B;}
	.st20{clip-path:url(#SVGID_14_);fill:#D90537;}
	.st21{clip-path:url(#SVGID_14_);fill:#702A2F;}
	.st22{clip-path:url(#SVGID_14_);fill:#A01933;}
	.st23{clip-path:url(#SVGID_14_);fill:#712A2F;}
	.st24{clip-path:url(#SVGID_14_);fill:#A11933;}
	.st25{clip-path:url(#SVGID_14_);fill:#722A2F;}
	.st26{clip-path:url(#SVGID_14_);fill:#A21833;}
	.st27{clip-path:url(#SVGID_14_);fill:#73292F;}
	.st28{clip-path:url(#SVGID_2_);fill:#0E4C96;}
	.st29{clip-path:url(#SVGID_14_);fill:#A31833;}
	.st30{clip-path:url(#SVGID_6_);fill:#309A37;}
	.st31{clip-path:url(#SVGID_14_);fill:#74292F;}
	.st32{clip-path:url(#SVGID_14_);fill:#A41733;}
	.st33{clip-path:url(#SVGID_6_);fill:#319B37;}
	.st34{clip-path:url(#SVGID_14_);fill:#752830;}
	.st35{clip-path:url(#SVGID_14_);fill:#A51733;}
	.st36{clip-path:url(#SVGID_6_);fill:#329C37;}
	.st37{clip-path:url(#SVGID_14_);fill:#762830;}
	.st38{clip-path:url(#SVGID_10_);fill:#1A3077;}
	.st39{clip-path:url(#SVGID_10_);fill:#1A3078;}
	.st40{clip-path:url(#SVGID_14_);fill:#A61733;}
	.st41{clip-path:url(#SVGID_6_);fill:#339C36;}
	.st42{clip-path:url(#SVGID_14_);fill:#DA0437;}
	.st43{clip-path:url(#SVGID_14_);fill:#772830;}
	.st44{clip-path:url(#SVGID_10_);fill:#1B2D74;}
	.st45{clip-path:url(#SVGID_10_);fill:#1B2E75;}
	.st46{clip-path:url(#SVGID_10_);fill:#1B2F76;}
	.st47{clip-path:url(#SVGID_14_);fill:#A71633;}
	.st48{clip-path:url(#SVGID_6_);fill:#349D36;}
	.st49{clip-path:url(#SVGID_14_);fill:#DB0437;}
	.st50{clip-path:url(#SVGID_14_);fill:#782730;}
	.st51{clip-path:url(#SVGID_10_);fill:#1C2B72;}
	.st52{clip-path:url(#SVGID_10_);fill:#1C2C73;}
	.st53{clip-path:url(#SVGID_6_);fill:#359E36;}
	.st54{clip-path:url(#SVGID_14_);fill:#DC0437;}
	.st55{clip-path:url(#SVGID_14_);fill:#792730;}
	.st56{clip-path:url(#SVGID_10_);fill:#1D2970;}
	.st57{clip-path:url(#SVGID_10_);fill:#1D2A71;}
	.st58{clip-path:url(#SVGID_14_);fill:#A91634;}
	.st59{clip-path:url(#SVGID_6_);fill:#369E36;}
	.st60{clip-path:url(#SVGID_14_);fill:#DD0338;}
	.st61{clip-path:url(#SVGID_6_);fill:#379F36;}
	.st62{clip-path:url(#SVGID_14_);fill:#DE0338;}
	.st63{clip-path:url(#SVGID_14_);fill:#DF0238;}
	.st64{clip-path:url(#SVGID_6_);fill:#38A036;}
	.st65{clip-path:url(#SVGID_6_);fill:#39A035;}
	.st66{clip-path:url(#SVGID_6_);fill:#007B40;}
	.st67{clip-path:url(#SVGID_16_);fill:#D9222A;}
	.st68{clip-path:url(#SVGID_6_);fill:#017C40;}
	.st69{clip-path:url(#SVGID_6_);fill:#027C40;}
	.st70{clip-path:url(#SVGID_14_);fill:#7A2730;}
	.st71{clip-path:url(#SVGID_6_);fill:#037D3F;}
	.st72{clip-path:url(#SVGID_14_);fill:#AA1634;}
	.st73{clip-path:url(#SVGID_14_);fill:#7B2630;}
	.st74{clip-path:url(#SVGID_6_);fill:#047E3F;}
	.st75{clip-path:url(#SVGID_14_);fill:#AB1534;}
	.st76{clip-path:url(#SVGID_14_);fill:#7C2630;}
	.st77{clip-path:url(#SVGID_6_);fill:#057E3F;}
	.st78{clip-path:url(#SVGID_14_);fill:#AC1534;}
	.st79{clip-path:url(#SVGID_14_);fill:#7D2630;}
	.st80{clip-path:url(#SVGID_6_);fill:#067F3F;}
	.st81{clip-path:url(#SVGID_14_);fill:#AD1534;}
	.st82{clip-path:url(#SVGID_14_);fill:#7E2530;}
	.st83{clip-path:url(#SVGID_6_);fill:#3AA135;}
	.st84{clip-path:url(#SVGID_6_);fill:#07803F;}
	.st85{clip-path:url(#SVGID_14_);fill:#AE1434;}
	.st86{clip-path:url(#SVGID_14_);fill:#7F2530;}
	.st87{clip-path:url(#SVGID_6_);fill:#3BA235;}
	.st88{clip-path:url(#SVGID_6_);fill:#08803E;}
	.st89{clip-path:url(#SVGID_14_);fill:#AF1434;}
	.st90{clip-path:url(#SVGID_14_);fill:#E00238;}
	.st91{clip-path:url(#SVGID_6_);fill:#3CA235;}
	.st92{clip-path:url(#SVGID_6_);fill:#09813E;}
	.st93{fill:#535353;}
	.st94{clip-path:url(#SVGID_14_);fill:#E10238;}
	.st95{clip-path:url(#SVGID_6_);fill:#3DA335;}
	.st96{clip-path:url(#SVGID_14_);fill:#E20138;}
	.st97{clip-path:url(#SVGID_6_);fill:#3EA434;}
	.st98{clip-path:url(#SVGID_16_);fill:#0E4595;}
	.st99{clip-path:url(#SVGID_14_);fill:#E30138;}
	.st100{clip-path:url(#SVGID_6_);fill:#3FA434;}
	.st101{clip-path:url(#SVGID_6_);fill:#0A823E;}
	.st102{clip-path:url(#SVGID_6_);fill:#0B823E;}
	.st103{clip-path:url(#SVGID_14_);fill:#802430;}
	.st104{clip-path:url(#SVGID_6_);fill:#0C833E;}
	.st105{clip-path:url(#SVGID_14_);fill:#B01334;}
	.st106{clip-path:url(#SVGID_14_);fill:#812430;}
	.st107{clip-path:url(#SVGID_6_);fill:#0D843E;}
	.st108{clip-path:url(#SVGID_14_);fill:#B11334;}
	.st109{clip-path:url(#SVGID_14_);fill:#822431;}
	.st110{clip-path:url(#SVGID_6_);fill:#0E843D;}
	.st111{clip-path:url(#SVGID_14_);fill:#B21334;}
	.st112{clip-path:url(#SVGID_14_);fill:#832331;}
	.st113{clip-path:url(#SVGID_6_);fill:#0F853D;}
	.st114{clip-path:url(#SVGID_14_);fill:#B31234;}
	.st115{fill:#F4761D;}
	.st116{clip-path:url(#SVGID_14_);fill:#842331;}
	.st117{clip-path:url(#SVGID_6_);fill:#40A534;}
	.st118{clip-path:url(#SVGID_14_);fill:#B41234;}
	.st119{clip-path:url(#SVGID_14_);fill:#852331;}
	.st120{clip-path:url(#SVGID_6_);fill:#41A634;}
	.st121{clip-path:url(#SVGID_14_);fill:#B51234;}
	.st122{clip-path:url(#SVGID_14_);fill:#862231;}
	.st123{clip-path:url(#SVGID_6_);fill:#42A634;}
	.st124{clip-path:url(#SVGID_14_);fill:#B61135;}
	.st125{clip-path:url(#SVGID_14_);fill:#872231;}
	.st126{clip-path:url(#SVGID_6_);fill:#43A733;}
	.st127{clip-path:url(#SVGID_14_);fill:#B71135;}
	.st128{clip-path:url(#SVGID_14_);fill:#882231;}
	.st129{clip-path:url(#SVGID_6_);fill:#44A833;}
	.st130{clip-path:url(#SVGID_14_);fill:#B81135;}
	.st131{clip-path:url(#SVGID_14_);fill:#892131;}
	.st132{clip-path:url(#SVGID_6_);fill:#45A833;}
	.st133{clip-path:url(#SVGID_4_);}
	.st134{clip-path:url(#SVGID_8_);}
	.st135{clip-path:url(#SVGID_14_);fill:#B91035;}
	.st136{clip-path:url(#SVGID_6_);fill:#46A933;}
	.st137{clip-path:url(#SVGID_6_);fill:#47AA33;}
	.st138{clip-path:url(#SVGID_6_);fill:#48AA32;}
	.st139{clip-path:url(#SVGID_6_);fill:#49AB32;}
	.st140{clip-path:url(#SVGID_6_);fill:#10863D;}
	.st141{clip-path:url(#SVGID_6_);fill:#11863D;}
	.st142{clip-path:url(#SVGID_6_);fill:#12873D;}
	.st143{clip-path:url(#SVGID_14_);fill:#8A2131;}
	.st144{clip-path:url(#SVGID_6_);fill:#13883C;}
	.st145{clip-path:url(#SVGID_14_);fill:#BA1035;}
	.st146{clip-path:url(#SVGID_14_);fill:#8B2131;}
	.st147{clip-path:url(#SVGID_6_);fill:#14883C;}
	.st148{clip-path:url(#SVGID_14_);fill:#BB0F35;}
	.st149{clip-path:url(#SVGID_14_);fill:#8C2031;}
	.st150{fill:#C8CBEA;}
	.st151{clip-path:url(#SVGID_6_);fill:#15893C;}
	.st152{clip-path:url(#SVGID_14_);fill:#BC0F35;}
	.st153{clip-path:url(#SVGID_14_);fill:#8D2031;}
	.st154{clip-path:url(#SVGID_2_);fill:#2557D6;}
	.st155{clip-path:url(#SVGID_6_);fill:#168A3C;}
	.st156{clip-path:url(#SVGID_14_);fill:#BD0F35;}
	.st157{clip-path:url(#SVGID_14_);fill:#8E1F31;}
	.st158{clip-path:url(#SVGID_6_);fill:#4AAC32;}
	.st159{fill:#FEFEFE;}
	.st160{clip-path:url(#SVGID_6_);fill:#178A3C;}
	.st161{clip-path:url(#SVGID_14_);fill:#BE0E35;}
	.st162{clip-path:url(#SVGID_14_);fill:#8F1F32;}
	.st163{clip-path:url(#SVGID_6_);fill:#4BAC32;}
	.st164{fill:#FFFFFF;}
	.st165{clip-path:url(#SVGID_6_);fill:#188B3B;}
	.st166{clip-path:url(#SVGID_14_);fill:#BF0E35;}
	.st167{clip-path:url(#SVGID_6_);fill:#4CAD32;}
	.st168{clip-path:url(#SVGID_6_);fill:#198C3B;}
	.st169{clip-path:url(#SVGID_6_);fill:#4DAE32;}
	.st170{clip-path:url(#SVGID_6_);fill:#4EAE31;}
	.st171{clip-path:url(#SVGID_6_);fill:#4FAF31;}
	.st172{clip-path:url(#SVGID_16_);fill:#EE9F2D;}
	.st173{fill:#9D9400;}
	.st174{clip-path:url(#SVGID_6_);fill:#1A8C3B;}
	.st175{clip-path:url(#SVGID_6_);fill:#1B8D3B;}
	.st176{clip-path:url(#SVGID_14_);fill:#901F32;}
	.st177{clip-path:url(#SVGID_10_);fill:#006CB9;}
	.st178{clip-path:url(#SVGID_10_);fill:#006DBA;}
	.st179{fill:#323CB0;}
	.st180{clip-path:url(#SVGID_6_);fill:#1C8E3B;}
	.st181{clip-path:url(#SVGID_14_);fill:#C00E35;}
	.st182{clip-path:url(#SVGID_14_);fill:#911E32;}
	.st183{clip-path:url(#SVGID_10_);fill:#016AB7;}
	.st184{clip-path:url(#SVGID_10_);fill:#016BB8;}
	.st185{fill:#333333;}
	.st186{clip-path:url(#SVGID_6_);fill:#1D8E3A;}
	.st187{clip-path:url(#SVGID_14_);fill:#C10D35;}
	.st188{clip-path:url(#SVGID_14_);fill:#921E32;}
	.st189{clip-path:url(#SVGID_10_);fill:#0267B4;}
	.st190{clip-path:url(#SVGID_10_);fill:#0268B5;}
	.st191{clip-path:url(#SVGID_10_);fill:#0269B6;}
	.st192{clip-path:url(#SVGID_6_);fill:#1E8F3A;}
	.st193{clip-path:url(#SVGID_14_);fill:#C20D35;}
	.st194{clip-path:url(#SVGID_14_);fill:#931E32;}
	.st195{clip-path:url(#SVGID_10_);fill:#0366B2;}
	.st196{clip-path:url(#SVGID_10_);fill:#0366B3;}
	.st197{clip-path:url(#SVGID_6_);fill:#1F903A;}
	.st198{clip-path:url(#SVGID_14_);fill:#C30D36;}
	.st199{clip-path:url(#SVGID_14_);fill:#941D32;}
	.st200{clip-path:url(#SVGID_10_);fill:#0463AF;}
	.st201{clip-path:url(#SVGID_10_);fill:#0464B0;}
	.st202{clip-path:url(#SVGID_10_);fill:#0465B1;}
	.st203{clip-path:url(#SVGID_6_);fill:#50B031;}
	.st204{clip-path:url(#SVGID_14_);fill:#C40C36;}
	.st205{clip-path:url(#SVGID_14_);fill:#951D32;}
	.st206{clip-path:url(#SVGID_10_);fill:#0561AD;}
	.st207{clip-path:url(#SVGID_10_);fill:#0562AE;}
	.st208{clip-path:url(#SVGID_6_);fill:#51B031;}
	.st209{clip-path:url(#SVGID_14_);fill:#C50C36;}
	.st210{clip-path:url(#SVGID_14_);fill:#961D32;}
	.st211{clip-path:url(#SVGID_10_);fill:#065EAA;}
	.st212{clip-path:url(#SVGID_10_);fill:#065FAB;}
	.st213{clip-path:url(#SVGID_10_);fill:#0660AC;}
	.st214{clip-path:url(#SVGID_6_);fill:#52B131;}
	.st215{clip-path:url(#SVGID_2_);fill:#FFFFFF;}
	.st216{clip-path:url(#SVGID_14_);fill:#C60C36;}
	.st217{clip-path:url(#SVGID_14_);fill:#971C32;}
	.st218{clip-path:url(#SVGID_10_);fill:#075CA8;}
	.st219{clip-path:url(#SVGID_10_);fill:#075DA9;}
	.st220{clip-path:url(#SVGID_6_);fill:#53B230;}
	.st221{clip-path:url(#SVGID_14_);fill:#C70B36;}
	.st222{clip-path:url(#SVGID_14_);fill:#981C32;}
	.st223{clip-path:url(#SVGID_10_);fill:#0859A5;}
	.st224{clip-path:url(#SVGID_10_);fill:#085AA6;}
	.st225{clip-path:url(#SVGID_10_);fill:#085BA7;}
	.st226{clip-path:url(#SVGID_6_);fill:#54B230;}
	.st227{clip-path:url(#SVGID_16_);fill:#F2AE14;}
	.st228{clip-path:url(#SVGID_14_);fill:#C80B36;}
	.st229{clip-path:url(#SVGID_14_);fill:#991B32;}
	.st230{clip-path:url(#SVGID_10_);fill:#0958A3;}
	.st231{clip-path:url(#SVGID_10_);fill:#0959A4;}
	.st232{fill:#000C9D;}
	.st233{clip-path:url(#SVGID_6_);fill:#55B330;}
	.st234{fill:#0079BE;}
	.st235{fill:#0097D0;}
	.st236{clip-path:url(#SVGID_14_);fill:#C90A36;}
	.st237{fill:#022E64;}
	.st238{fill:#D10429;}
	.st239{clip-path:url(#SVGID_6_);fill:#20903A;}
	.st240{clip-path:url(#SVGID_6_);fill:#21913A;}
	.st241{fill:#076F74;}
	.st242{clip-path:url(#SVGID_6_);fill:#22923A;}
	.st243{clip-path:url(#SVGID_14_);fill:#9A1B32;}
	.st244{clip-path:url(#SVGID_10_);fill:#0A55A0;}
	.st245{clip-path:url(#SVGID_10_);fill:#0A56A1;}
	.st246{clip-path:url(#SVGID_10_);fill:#0A57A2;}
	.st247{clip-path:url(#SVGID_6_);fill:#239239;}
	.st248{clip-path:url(#SVGID_14_);fill:#CA0A36;}
	.st249{clip-path:url(#SVGID_14_);fill:#9B1B32;}
	.st250{clip-path:url(#SVGID_10_);fill:#0B539E;}
	.st251{clip-path:url(#SVGID_10_);fill:#0B549F;}
	.st252{clip-path:url(#SVGID_6_);fill:#249339;}
	.st253{clip-path:url(#SVGID_14_);fill:#CB0A36;}
	.st254{clip-path:url(#SVGID_14_);fill:#9C1A33;}
	.st255{clip-path:url(#SVGID_10_);fill:#0C509B;}
	.st256{clip-path:url(#SVGID_10_);fill:#0C519C;}
	.st257{clip-path:url(#SVGID_10_);fill:#0C529D;}
	.st258{fill:#D9222A;}
	.st259{clip-path:url(#SVGID_6_);fill:#259439;}
	.st260{clip-path:url(#SVGID_14_);fill:#CC0936;}
	.st261{clip-path:url(#SVGID_14_);fill:#9D1A33;}
	.st262{clip-path:url(#SVGID_10_);fill:#0D4E99;}
	.st263{clip-path:url(#SVGID_10_);fill:#0D4F9A;}
	.st264{clip-path:url(#SVGID_6_);fill:#269439;}
	.st265{clip-path:url(#SVGID_14_);fill:#CD0936;}
	.st266{clip-path:url(#SVGID_14_);fill:#9E1A33;}
	.st267{clip-path:url(#SVGID_10_);fill:#0E4B96;}
	.st268{clip-path:url(#SVGID_10_);fill:#0E4C97;}
	.st269{clip-path:url(#SVGID_10_);fill:#0E4D98;}
	.st270{clip-path:url(#SVGID_6_);fill:#279539;}
	.st271{clip-path:url(#SVGID_14_);fill:#CE0936;}
	.st272{clip-path:url(#SVGID_14_);fill:#9F1933;}
	.st273{clip-path:url(#SVGID_10_);fill:#0F4992;}
	.st274{clip-path:url(#SVGID_10_);fill:#0F4A93;}
	.st275{clip-path:url(#SVGID_10_);fill:#0F4B94;}
	.st276{clip-path:url(#SVGID_6_);fill:#289638;}
	.st277{clip-path:url(#SVGID_14_);fill:#CF0836;}
	.st278{clip-path:url(#SVGID_12_);}
	.st279{clip-path:url(#SVGID_16_);}
	.st280{clip-path:url(#SVGID_6_);fill:#299638;}
	.st281{fill:#A5A5A5;}
	.st282{clip-path:url(#SVGID_16_);fill:#FFFFFF;}
	.st283{clip-path:url(#SVGID_6_);fill:#2A9738;}
	.st284{clip-path:url(#SVGID_14_);fill:#6E2B2F;}
	.st285{clip-path:url(#SVGID_14_);fill:#6F2B2F;}
	.st286{clip-path:url(#SVGID_10_);fill:#104790;}
	.st287{clip-path:url(#SVGID_10_);fill:#104891;}
	.st288{clip-path:url(#SVGID_6_);fill:#2C9838;}
	.st289{clip-path:url(#SVGID_14_);fill:#D00837;}
	.st290{clip-path:url(#SVGID_10_);fill:#11448D;}
	.st291{clip-path:url(#SVGID_10_);fill:#11458E;}
	.st292{clip-path:url(#SVGID_10_);fill:#11468F;}
	.st293{clip-path:url(#SVGID_6_);fill:#2D9838;}
	.st294{clip-path:url(#SVGID_14_);fill:#D10837;}
	.st295{clip-path:url(#SVGID_10_);fill:#12428B;}
	.st296{clip-path:url(#SVGID_10_);fill:#12438C;}
	.st297{clip-path:url(#SVGID_6_);fill:#2E9937;}
	.st298{clip-path:url(#SVGID_14_);fill:#D20737;}
	.st299{clip-path:url(#SVGID_10_);fill:#133F88;}
	.st300{clip-path:url(#SVGID_10_);fill:#134089;}
	.st301{clip-path:url(#SVGID_10_);fill:#13418A;}
	.st302{clip-path:url(#SVGID_6_);fill:#2F9A37;}
	.st303{clip-path:url(#SVGID_14_);fill:#D30737;}
]]>
</style>
<g>
	<g>
		<defs>
			<polyline id="SVGID_1_" points="44,0 218,0 218,26 44,26 44,0 			"/>
		</defs>
		<clipPath id="SVGID_2_">
			<use xlink:href="#SVGID_1_"  style="overflow:visible;"/>
		</clipPath>
		<path class="st154" d="M46.2,0h37.5C85,0,86,1,86,2.2v21.6c0,1.2-1,2.2-2.2,2.2H46.2C45,26,44,25,44,23.8V2.2C44,1,45,0,46.2,0"/>
		<path class="st215" d="M44,12.2h2l0.5-1.1h1l0.5,1.1h4v-0.8l0.4,0.8h2.1l0.4-0.8v0.8h9.9l0-1.8h0.2c0.1,0,0.2,0,0.2,0.2v1.5H70
			v-0.4c0.4,0.2,1.1,0.4,1.9,0.4H74l0.5-1.1h1l0.5,1.1h4.1v-1l0.6,1h3.3V5.4h-3.3v0.8l-0.5-0.8h-3.4v0.8l-0.4-0.8H72
			c-0.8,0-1.4,0.1-2,0.4V5.4h-3.1v0.4c-0.3-0.3-0.8-0.4-1.3-0.4H54.1l-0.8,1.7l-0.8-1.7h-3.6v0.8l-0.4-0.8h-3.1L44,8.7V12.2z
			 M56.7,11.2h-1.2l0-3.8l-1.7,3.8h-1l-1.7-3.8v3.8h-2.4l-0.5-1.1h-2.5l-0.5,1.1H44l2.1-4.8h1.8l2,4.6V6.4h1.9l1.5,3.3l1.4-3.3h2
			V11.2z M47.8,9.1L47,7.2l-0.8,1.9H47.8z M61.6,11.2h-3.9V6.4h3.9v1h-2.8v0.9h2.7v1h-2.7v1h2.8V11.2z M67.1,7.7
			c0,0.8-0.5,1.2-0.8,1.3c0.3,0.1,0.5,0.3,0.6,0.4c0.2,0.2,0.2,0.5,0.2,0.9v1h-1.2l0-0.6c0-0.3,0-0.7-0.2-0.9
			c-0.2-0.2-0.4-0.2-0.9-0.2h-1.3v1.8h-1.2V6.4h2.7c0.6,0,1,0,1.4,0.2C66.9,6.8,67.1,7.2,67.1,7.7 M65.6,8.4
			c-0.2,0.1-0.4,0.1-0.6,0.1h-1.4V7.4h1.5c0.2,0,0.4,0,0.6,0.1c0.2,0.1,0.2,0.2,0.2,0.4C65.9,8.2,65.8,8.3,65.6,8.4 M69,11.2h-1.2
			V6.4H69V11.2z M83,11.2h-1.7l-2.2-3.6v3.6h-2.4l-0.5-1.1h-2.5l-0.4,1.1h-1.4c-0.6,0-1.3-0.1-1.7-0.5c-0.4-0.4-0.6-1-0.6-1.9
			c0-0.7,0.1-1.4,0.6-1.9c0.4-0.4,1-0.6,1.8-0.6h1.1v1H72c-0.4,0-0.7,0.1-0.9,0.3c-0.2,0.2-0.3,0.6-0.3,1.1c0,0.5,0.1,0.9,0.3,1.1
			c0.2,0.2,0.5,0.3,0.8,0.3h0.5l1.7-3.8h1.8l2,4.6V6.4h1.8l2.1,3.4V6.4H83V11.2z M75.8,9.1L75,7.2l-0.8,1.9H75.8z"/>
		<path class="st215" d="M86,19c-0.3,0.4-0.8,0.6-1.6,0.6h-2.3v-1h2.3c0.2,0,0.4,0,0.5-0.1c0.1-0.1,0.1-0.2,0.1-0.3
			c0-0.1-0.1-0.3-0.1-0.3c-0.1-0.1-0.2-0.1-0.4-0.1c-1.1,0-2.5,0-2.5-1.5c0-0.7,0.5-1.4,1.7-1.4H86v-1h-2.2c-0.7,0-1.1,0.2-1.5,0.4
			v-0.4h-3.2c-0.5,0-1.1,0.1-1.4,0.4v-0.4h-5.8v0.4c-0.5-0.3-1.2-0.4-1.6-0.4h-3.8v0.4c-0.4-0.3-1.2-0.4-1.7-0.4h-4.3l-1,1l-0.9-1
			h-6.4v6.8h6.2l1-1.1l0.9,1.1l3.8,0V19h0.4c0.5,0,1.1,0,1.6-0.2v1.8h3.2v-1.8h0.2c0.2,0,0.2,0,0.2,0.2v1.6h9.6
			c0.6,0,1.3-0.2,1.6-0.4v0.4h3.1c0.6,0,1.3-0.1,1.7-0.3V19z M66.9,16.4c0,1.3-1,1.6-2.1,1.6h-1.5v1.6H61L59.6,18l-1.5,1.6h-4.7
			v-4.9h4.7l1.5,1.6l1.5-1.6h3.8C65.8,14.8,66.9,15,66.9,16.4 M57.5,18.6h-2.9v-1h2.6v-1h-2.6v-0.9h3l1.3,1.4L57.5,18.6z M62.2,19.2
			l-1.8-2l1.8-1.9V19.2z M64.8,17h-1.5v-1.2h1.5c0.4,0,0.7,0.2,0.7,0.6C65.6,16.8,65.3,17,64.8,17 M72.8,14.8h3.9v1H74v0.9h2.7v1H74
			v1l2.8,0v1h-3.9V14.8z M71.3,17.4c0.3,0.1,0.5,0.3,0.6,0.4c0.2,0.2,0.2,0.5,0.2,0.9v1h-1.2V19c0-0.3,0-0.7-0.2-0.9
			c-0.2-0.2-0.4-0.2-0.9-0.2h-1.3v1.8h-1.2v-4.9h2.7c0.6,0,1,0,1.4,0.2c0.4,0.2,0.6,0.5,0.6,1.1C72.2,16.9,71.6,17.3,71.3,17.4
			 M70.7,16.8c-0.2,0.1-0.4,0.1-0.6,0.1h-1.4v-1.1h1.5c0.2,0,0.4,0,0.6,0.1c0.2,0.1,0.2,0.2,0.2,0.4C70.9,16.5,70.8,16.7,70.7,16.8
			 M81.3,17.1c0.2,0.2,0.4,0.5,0.4,1c0,1-0.7,1.5-1.9,1.5h-2.3v-1h2.3c0.2,0,0.4,0,0.5-0.1c0.1-0.1,0.1-0.2,0.1-0.3
			c0-0.1-0.1-0.3-0.1-0.3c-0.1-0.1-0.2-0.1-0.4-0.1c-1.1,0-2.5,0-2.5-1.5c0-0.7,0.5-1.4,1.7-1.4h2.4v1h-2.2c-0.2,0-0.4,0-0.5,0.1
			c-0.1,0.1-0.2,0.2-0.2,0.3c0,0.2,0.1,0.3,0.3,0.4c0.1,0,0.3,0.1,0.5,0.1l0.6,0C80.6,16.7,81,16.8,81.3,17.1 M86,15.8h-2.2
			c-0.2,0-0.4,0-0.5,0.1c-0.1,0.1-0.2,0.2-0.2,0.3c0,0.2,0.1,0.3,0.3,0.4c0.1,0,0.3,0.1,0.5,0.1l0.6,0c0.6,0,1.1,0.1,1.3,0.4
			l0.1,0.1V15.8z"/>
		<path class="st28" d="M90.2,0h37.5c1.2,0,2.2,1,2.2,2.2v21.6c0,1.2-1,2.2-2.2,2.2H90.2C89,26,88,25,88,23.8V2.2C88,1,89,0,90.2,0"
			/>
		<path class="st215" d="M122.6,19.1c0,2.3-1.9,4.2-4.2,4.2H95.4V6.9c0-2.3,1.9-4.2,4.2-4.2h22.9V19.1z"/>
	</g>
	<g>
		<defs>
			<path id="SVGID_3_" d="M115.8,13.4c-0.3,0-0.5,0-0.8,0v1.6h0.9c0.1,0,0.3,0,0.4,0c0.3,0,0.6,0,0.9-0.1c0.6-0.3,0.4-1.3-0.2-1.4
				c-0.3,0-0.5,0-0.8,0C116.1,13.4,116,13.4,115.8,13.4 M115.8,11c-0.2,0-0.5,0-0.7,0c0,0.5,0,1,0,1.4h1.5c0.5,0.1,1-0.4,0.8-0.9
				c-0.1-0.3-0.3-0.5-0.5-0.5c-0.2,0-0.5,0-0.7,0C116.1,11,115.9,11,115.8,11 M113.6,6.8c0,1.1,0,2.3,0,3.4c0.6,0,1.1,0,1.7,0
				c0.9,0,1.8,0,2.8,0c0.7,0,1.6,0.3,1.8,1.1c0.2,0.7-0.4,1.5-1.1,1.6c-0.3,0-0.3,0.1,0,0.1c0.8,0.1,1.6,0.7,1.5,1.5
				c0,0.8-0.9,1.3-1.6,1.4c-1,0-2.1,0-3.1,0c-0.6,0-1.2,0-1.8,0v6.1c0.6,0,1.2,0,1.8,0c0.9,0,1.8,0,2.7,0c1.5,0,2.9-1.3,2.9-2.8
				c0-4,0-8,0-12c0-1,0-2,0-3h-4.4h0C115.1,4.1,113.8,5.3,113.6,6.8"/>
		</defs>
		<clipPath id="SVGID_4_">
			<use xlink:href="#SVGID_3_"  style="overflow:visible;"/>
		</clipPath>
		<g class="st133">
			<defs>
				<polyline id="SVGID_5_" points="113.6,4.1 121.1,4.1 121.1,21.9 113.6,21.9 113.6,4.1 				"/>
			</defs>
			<clipPath id="SVGID_6_">
				<use xlink:href="#SVGID_5_"  style="overflow:visible;"/>
			</clipPath>
			<rect x="113.6" y="4.1" class="st66" width="0" height="17.8"/>
			<rect x="113.6" y="4.1" class="st66" width="0.1" height="17.8"/>
			<rect x="113.7" y="4.1" class="st68" width="0.1" height="17.8"/>
			<rect x="113.8" y="4.1" class="st69" width="0.1" height="17.8"/>
			<rect x="113.9" y="4.1" class="st71" width="0.1" height="17.8"/>
			<rect x="114" y="4.1" class="st74" width="0.1" height="17.8"/>
			<rect x="114.1" y="4.1" class="st77" width="0.1" height="17.8"/>
			<rect x="114.1" y="4.1" class="st80" width="0.1" height="17.8"/>
			<rect x="114.2" y="4.1" class="st84" width="0.1" height="17.8"/>
			<rect x="114.3" y="4.1" class="st88" width="0.1" height="17.8"/>
			<rect x="114.4" y="4.1" class="st92" width="0.1" height="17.8"/>
			<rect x="114.5" y="4.1" class="st101" width="0.1" height="17.8"/>
			<rect x="114.6" y="4.1" class="st102" width="0.1" height="17.8"/>
			<rect x="114.7" y="4.1" class="st104" width="0.1" height="17.8"/>
			<rect x="114.8" y="4.1" class="st107" width="0.1" height="17.8"/>
			<rect x="114.8" y="4.1" class="st110" width="0.1" height="17.8"/>
			<rect x="114.9" y="4.1" class="st113" width="0.1" height="17.8"/>
			<rect x="115" y="4.1" class="st140" width="0.1" height="17.8"/>
			<rect x="115.1" y="4.1" class="st141" width="0.1" height="17.8"/>
			<rect x="115.2" y="4.1" class="st142" width="0.1" height="17.8"/>
			<rect x="115.3" y="4.1" class="st144" width="0.1" height="17.8"/>
			<rect x="115.4" y="4.1" class="st147" width="0.1" height="17.8"/>
			<rect x="115.5" y="4.1" class="st151" width="0.1" height="17.8"/>
			<rect x="115.5" y="4.1" class="st155" width="0.1" height="17.8"/>
			<rect x="115.6" y="4.1" class="st160" width="0.1" height="17.8"/>
			<rect x="115.7" y="4.1" class="st165" width="0.1" height="17.8"/>
			<rect x="115.8" y="4.1" class="st168" width="0.1" height="17.8"/>
			<rect x="115.9" y="4.1" class="st174" width="0.1" height="17.8"/>
			<rect x="116" y="4.1" class="st175" width="0.1" height="17.8"/>
			<rect x="116.1" y="4.1" class="st180" width="0.1" height="17.8"/>
			<rect x="116.2" y="4.1" class="st186" width="0.1" height="17.8"/>
			<rect x="116.2" y="4.1" class="st192" width="0.1" height="17.8"/>
			<rect x="116.3" y="4.1" class="st197" width="0.1" height="17.8"/>
			<rect x="116.4" y="4.1" class="st239" width="0.1" height="17.8"/>
			<rect x="116.5" y="4.1" class="st240" width="0.1" height="17.8"/>
			<rect x="116.6" y="4.1" class="st242" width="0.1" height="17.8"/>
			<rect x="116.7" y="4.1" class="st247" width="0.1" height="17.8"/>
			<rect x="116.8" y="4.1" class="st252" width="0.1" height="17.8"/>
			<rect x="116.9" y="4.1" class="st259" width="0.1" height="17.8"/>
			<rect x="116.9" y="4.1" class="st264" width="0.1" height="17.8"/>
			<rect x="117" y="4.1" class="st270" width="0.1" height="17.8"/>
			<rect x="117.1" y="4.1" class="st276" width="0.1" height="17.8"/>
			<rect x="117.2" y="4.1" class="st280" width="0.1" height="17.8"/>
			<rect x="117.3" y="4.1" class="st283" width="0.1" height="17.8"/>
			<rect x="117.4" y="4.1" class="st288" width="0.1" height="17.8"/>
			<rect x="117.5" y="4.1" class="st293" width="0.1" height="17.8"/>
			<rect x="117.6" y="4.1" class="st297" width="0.1" height="17.8"/>
			<rect x="117.6" y="4.1" class="st302" width="0.1" height="17.8"/>
			<rect x="117.7" y="4.1" class="st30" width="0.1" height="17.8"/>
			<rect x="117.8" y="4.1" class="st33" width="0.1" height="17.8"/>
			<rect x="117.9" y="4.1" class="st36" width="0.1" height="17.8"/>
			<rect x="118" y="4.1" class="st41" width="0.1" height="17.8"/>
			<rect x="118.1" y="4.1" class="st48" width="0.1" height="17.8"/>
			<rect x="118.2" y="4.1" class="st53" width="0.1" height="17.8"/>
			<rect x="118.3" y="4.1" class="st59" width="0.1" height="17.8"/>
			<rect x="118.3" y="4.1" class="st61" width="0.1" height="17.8"/>
			<rect x="118.4" y="4.1" class="st64" width="0.1" height="17.8"/>
			<rect x="118.5" y="4.1" class="st65" width="0.1" height="17.8"/>
			<rect x="118.6" y="4.1" class="st83" width="0.1" height="17.8"/>
			<rect x="118.7" y="4.1" class="st87" width="0.1" height="17.8"/>
			<rect x="118.8" y="4.1" class="st91" width="0.1" height="17.8"/>
			<rect x="118.9" y="4.1" class="st95" width="0.1" height="17.8"/>
			<rect x="119" y="4.1" class="st97" width="0.1" height="17.8"/>
			<rect x="119" y="4.1" class="st100" width="0.1" height="17.8"/>
			<rect x="119.1" y="4.1" class="st117" width="0.1" height="17.8"/>
			<rect x="119.2" y="4.1" class="st120" width="0.1" height="17.8"/>
			<rect x="119.3" y="4.1" class="st123" width="0.1" height="17.8"/>
			<rect x="119.4" y="4.1" class="st126" width="0.1" height="17.8"/>
			<rect x="119.5" y="4.1" class="st129" width="0.1" height="17.8"/>
			<rect x="119.6" y="4.1" class="st132" width="0.1" height="17.8"/>
			<rect x="119.7" y="4.1" class="st136" width="0.1" height="17.8"/>
			<rect x="119.7" y="4.1" class="st137" width="0.1" height="17.8"/>
			<rect x="119.8" y="4.1" class="st138" width="0.1" height="17.8"/>
			<rect x="119.9" y="4.1" class="st139" width="0.1" height="17.8"/>
			<rect x="120" y="4.1" class="st158" width="0.1" height="17.8"/>
			<rect x="120.1" y="4.1" class="st163" width="0.1" height="17.8"/>
			<rect x="120.2" y="4.1" class="st167" width="0.1" height="17.8"/>
			<rect x="120.3" y="4.1" class="st169" width="0.1" height="17.8"/>
			<rect x="120.4" y="4.1" class="st170" width="0.1" height="17.8"/>
			<rect x="120.4" y="4.1" class="st171" width="0.1" height="17.8"/>
			<rect x="120.5" y="4.1" class="st203" width="0.1" height="17.8"/>
			<rect x="120.6" y="4.1" class="st208" width="0.1" height="17.8"/>
			<rect x="120.7" y="4.1" class="st214" width="0.1" height="17.8"/>
			<rect x="120.8" y="4.1" class="st220" width="0.1" height="17.8"/>
			<rect x="120.9" y="4.1" class="st226" width="0.1" height="17.8"/>
			<rect x="121" y="4.1" class="st233" width="0.1" height="17.8"/>
			<rect x="121.1" y="4.1" class="st233" width="0" height="17.8"/>
		</g>
	</g>
	<g>
		<defs>
			<path id="SVGID_7_" d="M99.8,4.1c-1.5,0-2.9,1.3-2.9,2.8c0,2.3,0,5.2,0,7.5c0,0,1.8,0.7,2.7,0.6c0.7,0,1.5-0.5,1.6-1.2
				c0-1.2,0-2.5,0-3.7h2.6V12c0,0.8,0.1,1.6-0.1,2.4c-0.3,0.9-1.3,1.4-2.2,1.5c-1.5,0.2-3,0.1-4.5-0.3v6.3c0.5,0,1.1,0,1.6,0
				c1,0,1.9,0,2.9,0c1.5,0,2.8-1.3,2.9-2.8c0-5,0-10,0-15.1c-0.5,0-1.1,0-1.6,0c-0.4,0-0.8,0-1.2,0C101,4.1,100.4,4.1,99.8,4.1"/>
		</defs>
		<clipPath id="SVGID_8_">
			<use xlink:href="#SVGID_7_"  style="overflow:visible;"/>
		</clipPath>
		<g class="st134">
			<defs>
				<polyline id="SVGID_9_" points="96.9,4.1 104.4,4.1 104.4,21.9 96.9,21.9 96.9,4.1 				"/>
			</defs>
			<clipPath id="SVGID_10_">
				<use xlink:href="#SVGID_9_"  style="overflow:visible;"/>
			</clipPath>
			<rect x="96.9" y="4.1" class="st56" width="0" height="17.8"/>
			<rect x="96.9" y="4.1" class="st56" width="0.1" height="17.8"/>
			<rect x="97" y="4.1" class="st57" width="0.1" height="17.8"/>
			<rect x="97.1" y="4.1" class="st51" width="0.1" height="17.8"/>
			<rect x="97.2" y="4.1" class="st52" width="0.1" height="17.8"/>
			<rect x="97.3" y="4.1" class="st44" width="0.1" height="17.8"/>
			<rect x="97.4" y="4.1" class="st45" width="0.1" height="17.8"/>
			<rect x="97.5" y="4.1" class="st46" width="0.1" height="17.8"/>
			<rect x="97.6" y="4.1" class="st38" width="0.1" height="17.8"/>
			<rect x="97.7" y="4.1" class="st39" width="0.1" height="17.8"/>
			<rect x="97.8" y="4.1" class="st17" width="0.1" height="17.8"/>
			<rect x="97.9" y="4.1" class="st18" width="0.1" height="17.8"/>
			<rect x="98" y="4.1" class="st19" width="0.1" height="17.8"/>
			<rect x="98.1" y="4.1" class="st14" width="0.1" height="17.8"/>
			<rect x="98.2" y="4.1" class="st15" width="0.1" height="17.8"/>
			<rect x="98.3" y="4.1" class="st10" width="0.1" height="17.8"/>
			<rect x="98.4" y="4.1" class="st11" width="0.1" height="17.8"/>
			<rect x="98.5" y="4.1" class="st12" width="0.1" height="17.8"/>
			<rect x="98.6" y="4.1" class="st7" width="0.1" height="17.8"/>
			<rect x="98.7" y="4.1" class="st8" width="0.1" height="17.8"/>
			<rect x="98.8" y="4.1" class="st3" width="0.1" height="17.8"/>
			<rect x="99" y="4.1" class="st4" width="0.1" height="17.8"/>
			<rect x="99.1" y="4.1" class="st5" width="0.1" height="17.8"/>
			<rect x="99.2" y="4.1" class="st0" width="0.1" height="17.8"/>
			<rect x="99.3" y="4.1" class="st1" width="0.1" height="17.8"/>
			<rect x="99.4" y="4.1" class="st299" width="0.1" height="17.8"/>
			<rect x="99.5" y="4.1" class="st300" width="0.1" height="17.8"/>
			<rect x="99.6" y="4.1" class="st301" width="0.1" height="17.8"/>
			<rect x="99.7" y="4.1" class="st295" width="0.1" height="17.8"/>
			<rect x="99.8" y="4.1" class="st296" width="0.1" height="17.8"/>
			<rect x="99.9" y="4.1" class="st290" width="0.1" height="17.8"/>
			<rect x="100" y="4.1" class="st291" width="0.1" height="17.8"/>
			<rect x="100.1" y="4.1" class="st292" width="0.1" height="17.8"/>
			<rect x="100.2" y="4.1" class="st286" width="0.1" height="17.8"/>
			<rect x="100.3" y="4.1" class="st287" width="0.1" height="17.8"/>
			<rect x="100.4" y="4.1" class="st273" width="0.1" height="17.8"/>
			<rect x="100.5" y="4.1" class="st274" width="0.1" height="17.8"/>
			<rect x="100.6" y="4.1" class="st275" width="0.1" height="17.8"/>
			<rect x="100.7" y="4.1" class="st267" width="0.1" height="17.8"/>
			<rect x="100.8" y="4.1" class="st268" width="0.1" height="17.8"/>
			<rect x="100.9" y="4.1" class="st269" width="0.1" height="17.8"/>
			<rect x="101" y="4.1" class="st262" width="0.1" height="17.8"/>
			<rect x="101.1" y="4.1" class="st263" width="0.1" height="17.8"/>
			<rect x="101.2" y="4.1" class="st255" width="0.1" height="17.8"/>
			<rect x="101.3" y="4.1" class="st256" width="0.1" height="17.8"/>
			<rect x="101.4" y="4.1" class="st257" width="0.1" height="17.8"/>
			<rect x="101.5" y="4.1" class="st250" width="0.1" height="17.8"/>
			<rect x="101.6" y="4.1" class="st251" width="0.1" height="17.8"/>
			<rect x="101.7" y="4.1" class="st244" width="0.1" height="17.8"/>
			<rect x="101.8" y="4.1" class="st245" width="0.1" height="17.8"/>
			<rect x="101.9" y="4.1" class="st246" width="0.1" height="17.8"/>
			<rect x="102" y="4.1" class="st230" width="0.1" height="17.8"/>
			<rect x="102.1" y="4.1" class="st231" width="0.1" height="17.8"/>
			<rect x="102.2" y="4.1" class="st223" width="0.1" height="17.8"/>
			<rect x="102.3" y="4.1" class="st224" width="0.1" height="17.8"/>
			<rect x="102.4" y="4.1" class="st225" width="0.1" height="17.8"/>
			<rect x="102.5" y="4.1" class="st218" width="0.1" height="17.8"/>
			<rect x="102.6" y="4.1" class="st219" width="0.1" height="17.8"/>
			<rect x="102.7" y="4.1" class="st211" width="0.1" height="17.8"/>
			<rect x="102.8" y="4.1" class="st212" width="0.1" height="17.8"/>
			<rect x="102.9" y="4.1" class="st213" width="0.1" height="17.8"/>
			<rect x="103" y="4.1" class="st206" width="0.1" height="17.8"/>
			<rect x="103.1" y="4.1" class="st207" width="0.1" height="17.8"/>
			<rect x="103.2" y="4.1" class="st200" width="0.1" height="17.8"/>
			<rect x="103.3" y="4.1" class="st201" width="0.1" height="17.8"/>
			<rect x="103.4" y="4.1" class="st202" width="0.1" height="17.8"/>
			<rect x="103.5" y="4.1" class="st195" width="0.1" height="17.8"/>
			<rect x="103.6" y="4.1" class="st196" width="0.1" height="17.8"/>
			<rect x="103.7" y="4.1" class="st189" width="0.1" height="17.8"/>
			<rect x="103.8" y="4.1" class="st190" width="0.1" height="17.8"/>
			<rect x="103.9" y="4.1" class="st191" width="0.1" height="17.8"/>
			<rect x="104" y="4.1" class="st183" width="0.1" height="17.8"/>
			<rect x="104.1" y="4.1" class="st184" width="0.1" height="17.8"/>
			<rect x="104.2" y="4.1" class="st177" width="0.1" height="17.8"/>
			<rect x="104.3" y="4.1" class="st178" width="0.1" height="17.8"/>
			<rect x="104.4" y="4.1" class="st178" width="0" height="17.8"/>
		</g>
	</g>
	<g>
		<defs>
			<path id="SVGID_11_" d="M105.3,6.8c0,1.2,0,2.3,0,3.5c0,0.2-0.1,0.7,0.1,0.6c0.4-0.3,0.9-0.5,1.4-0.7c1.7-0.4,3.5-0.3,5.2,0.1v1
				c0.1,0.4-0.1,0.2-0.3,0.1c-1-0.4-2.2-0.7-3.3-0.4c-0.9,0.3-1.4,1.2-1.3,2c0,0.8,0.6,1.6,1.4,1.8c1.2,0.3,2.4,0,3.5-0.6v1.3
				c-0.9,0.2-1.9,0.4-2.9,0.4c-1.3,0-2.7-0.1-3.7-1v6.9c0.5,0,1.1,0,1.6,0c1,0,2,0,2.9,0c1.5,0,2.8-1.3,2.9-2.8c0-5,0-10,0-15.1
				h-4.4l-0.1,0C106.8,4.1,105.4,5.3,105.3,6.8"/>
		</defs>
		<clipPath id="SVGID_12_">
			<use xlink:href="#SVGID_11_"  style="overflow:visible;"/>
		</clipPath>
		<g class="st278">
			<defs>
				<polyline id="SVGID_13_" points="105.2,4.1 112.7,4.1 112.7,21.9 105.2,21.9 105.2,4.1 				"/>
			</defs>
			<clipPath id="SVGID_14_">
				<use xlink:href="#SVGID_13_"  style="overflow:visible;"/>
			</clipPath>
			<rect x="105.2" y="4.1" class="st284" width="0.1" height="17.8"/>
			<rect x="105.3" y="4.1" class="st284" width="0.1" height="17.8"/>
			<rect x="105.3" y="4.1" class="st285" width="0.1" height="17.8"/>
			<rect x="105.4" y="4.1" class="st21" width="0.1" height="17.8"/>
			<rect x="105.5" y="4.1" class="st23" width="0.1" height="17.8"/>
			<rect x="105.5" y="4.1" class="st25" width="0.1" height="17.8"/>
			<rect x="105.6" y="4.1" class="st27" width="0.1" height="17.8"/>
			<rect x="105.7" y="4.1" class="st31" width="0.1" height="17.8"/>
			<rect x="105.7" y="4.1" class="st34" width="0.1" height="17.8"/>
			<rect x="105.8" y="4.1" class="st37" width="0.1" height="17.8"/>
			<rect x="105.9" y="4.1" class="st43" width="0.1" height="17.8"/>
			<rect x="105.9" y="4.1" class="st50" width="0.1" height="17.8"/>
			<rect x="106" y="4.1" class="st55" width="0.1" height="17.8"/>
			<rect x="106" y="4.1" class="st70" width="0.1" height="17.8"/>
			<rect x="106.1" y="4.1" class="st73" width="0.1" height="17.8"/>
			<rect x="106.2" y="4.1" class="st76" width="0.1" height="17.8"/>
			<rect x="106.2" y="4.1" class="st79" width="0.1" height="17.8"/>
			<rect x="106.3" y="4.1" class="st82" width="0.1" height="17.8"/>
			<rect x="106.4" y="4.1" class="st86" width="0.1" height="17.8"/>
			<rect x="106.4" y="4.1" class="st103" width="0.1" height="17.8"/>
			<rect x="106.5" y="4.1" class="st106" width="0.1" height="17.8"/>
			<rect x="106.6" y="4.1" class="st109" width="0.1" height="17.8"/>
			<rect x="106.6" y="4.1" class="st112" width="0.1" height="17.8"/>
			<rect x="106.7" y="4.1" class="st116" width="0.1" height="17.8"/>
			<rect x="106.7" y="4.1" class="st119" width="0.1" height="17.8"/>
			<rect x="106.8" y="4.1" class="st122" width="0.1" height="17.8"/>
			<rect x="106.9" y="4.1" class="st125" width="0.1" height="17.8"/>
			<rect x="106.9" y="4.1" class="st128" width="0.1" height="17.8"/>
			<rect x="107" y="4.1" class="st131" width="0.1" height="17.8"/>
			<rect x="107.1" y="4.1" class="st143" width="0.1" height="17.8"/>
			<rect x="107.1" y="4.1" class="st146" width="0.1" height="17.8"/>
			<rect x="107.2" y="4.1" class="st149" width="0.1" height="17.8"/>
			<rect x="107.3" y="4.1" class="st153" width="0.1" height="17.8"/>
			<rect x="107.3" y="4.1" class="st157" width="0.1" height="17.8"/>
			<rect x="107.4" y="4.1" class="st162" width="0.1" height="17.8"/>
			<rect x="107.4" y="4.1" class="st176" width="0.1" height="17.8"/>
			<rect x="107.5" y="4.1" class="st182" width="0.1" height="17.8"/>
			<rect x="107.6" y="4.1" class="st188" width="0.1" height="17.8"/>
			<rect x="107.6" y="4.1" class="st194" width="0.1" height="17.8"/>
			<rect x="107.7" y="4.1" class="st199" width="0.1" height="17.8"/>
			<rect x="107.8" y="4.1" class="st205" width="0.1" height="17.8"/>
			<rect x="107.8" y="4.1" class="st210" width="0.1" height="17.8"/>
			<rect x="107.9" y="4.1" class="st217" width="0.1" height="17.8"/>
			<rect x="108" y="4.1" class="st222" width="0.1" height="17.8"/>
			<rect x="108" y="4.1" class="st229" width="0.1" height="17.8"/>
			<rect x="108.1" y="4.1" class="st243" width="0.1" height="17.8"/>
			<rect x="108.1" y="4.1" class="st249" width="0.1" height="17.8"/>
			<rect x="108.2" y="4.1" class="st254" width="0.1" height="17.8"/>
			<rect x="108.3" y="4.1" class="st261" width="0.1" height="17.8"/>
			<rect x="108.3" y="4.1" class="st266" width="0.1" height="17.8"/>
			<rect x="108.4" y="4.1" class="st272" width="0.1" height="17.8"/>
			<rect x="108.5" y="4.1" class="st22" width="0.1" height="17.8"/>
			<rect x="108.5" y="4.1" class="st24" width="0.1" height="17.8"/>
			<rect x="108.6" y="4.1" class="st26" width="0.1" height="17.8"/>
			<rect x="108.7" y="4.1" class="st29" width="0.1" height="17.8"/>
			<rect x="108.7" y="4.1" class="st32" width="0.1" height="17.8"/>
			<rect x="108.8" y="4.1" class="st35" width="0.1" height="17.8"/>
			<rect x="108.8" y="4.1" class="st40" width="0.1" height="17.8"/>
			<rect x="108.9" y="4.1" class="st47" width="0.1" height="17.8"/>
			<rect x="109" y="4.1" class="st58" width="0.1" height="17.8"/>
			<rect x="109" y="4.1" class="st72" width="0.1" height="17.8"/>
			<rect x="109.1" y="4.1" class="st75" width="0.1" height="17.8"/>
			<rect x="109.2" y="4.1" class="st78" width="0.1" height="17.8"/>
			<rect x="109.2" y="4.1" class="st81" width="0.1" height="17.8"/>
			<rect x="109.3" y="4.1" class="st85" width="0.1" height="17.8"/>
			<rect x="109.3" y="4.1" class="st89" width="0.1" height="17.8"/>
			<rect x="109.4" y="4.1" class="st105" width="0.1" height="17.8"/>
			<rect x="109.5" y="4.1" class="st108" width="0.1" height="17.8"/>
			<rect x="109.5" y="4.1" class="st111" width="0.1" height="17.8"/>
			<rect x="109.6" y="4.1" class="st114" width="0.1" height="17.8"/>
			<rect x="109.7" y="4.1" class="st118" width="0.1" height="17.8"/>
			<rect x="109.7" y="4.1" class="st121" width="0.1" height="17.8"/>
			<rect x="109.8" y="4.1" class="st124" width="0.1" height="17.8"/>
			<rect x="109.9" y="4.1" class="st127" width="0.1" height="17.8"/>
			<rect x="109.9" y="4.1" class="st130" width="0.1" height="17.8"/>
			<rect x="110" y="4.1" class="st135" width="0.1" height="17.8"/>
			<rect x="110" y="4.1" class="st145" width="0.1" height="17.8"/>
			<rect x="110.1" y="4.1" class="st148" width="0.1" height="17.8"/>
			<rect x="110.2" y="4.1" class="st152" width="0.1" height="17.8"/>
			<rect x="110.2" y="4.1" class="st156" width="0.1" height="17.8"/>
			<rect x="110.3" y="4.1" class="st161" width="0.1" height="17.8"/>
			<rect x="110.4" y="4.1" class="st166" width="0.1" height="17.8"/>
			<rect x="110.4" y="4.1" class="st181" width="0.1" height="17.8"/>
			<rect x="110.5" y="4.1" class="st187" width="0.1" height="17.8"/>
			<rect x="110.6" y="4.1" class="st193" width="0.1" height="17.8"/>
			<rect x="110.6" y="4.1" class="st198" width="0.1" height="17.8"/>
			<rect x="110.7" y="4.1" class="st204" width="0.1" height="17.8"/>
			<rect x="110.7" y="4.1" class="st209" width="0.1" height="17.8"/>
			<rect x="110.8" y="4.1" class="st216" width="0.1" height="17.8"/>
			<rect x="110.9" y="4.1" class="st221" width="0.1" height="17.8"/>
			<rect x="110.9" y="4.1" class="st228" width="0.1" height="17.8"/>
			<rect x="111" y="4.1" class="st236" width="0.1" height="17.8"/>
			<rect x="111.1" y="4.1" class="st248" width="0.1" height="17.8"/>
			<rect x="111.1" y="4.1" class="st253" width="0.1" height="17.8"/>
			<rect x="111.2" y="4.1" class="st260" width="0.1" height="17.8"/>
			<rect x="111.3" y="4.1" class="st265" width="0.1" height="17.8"/>
			<rect x="111.3" y="4.1" class="st271" width="0.1" height="17.8"/>
			<rect x="111.4" y="4.1" class="st277" width="0.1" height="17.8"/>
			<rect x="111.4" y="4.1" class="st289" width="0.1" height="17.8"/>
			<rect x="111.5" y="4.1" class="st294" width="0.1" height="17.8"/>
			<rect x="111.6" y="4.1" class="st298" width="0.1" height="17.8"/>
			<rect x="111.6" y="4.1" class="st303" width="0.1" height="17.8"/>
			<rect x="111.7" y="4.1" class="st2" width="0.1" height="17.8"/>
			<rect x="111.8" y="4.1" class="st6" width="0.1" height="17.8"/>
			<rect x="111.8" y="4.1" class="st9" width="0.1" height="17.8"/>
			<rect x="111.9" y="4.1" class="st13" width="0.1" height="17.8"/>
			<rect x="112" y="4.1" class="st16" width="0.1" height="17.8"/>
			<rect x="112" y="4.1" class="st20" width="0.1" height="17.8"/>
			<rect x="112.1" y="4.1" class="st42" width="0.1" height="17.8"/>
			<rect x="112.1" y="4.1" class="st49" width="0.1" height="17.8"/>
			<rect x="112.2" y="4.1" class="st54" width="0.1" height="17.8"/>
			<rect x="112.3" y="4.1" class="st60" width="0.1" height="17.8"/>
			<rect x="112.3" y="4.1" class="st62" width="0.1" height="17.8"/>
			<rect x="112.4" y="4.1" class="st63" width="0.1" height="17.8"/>
			<rect x="112.5" y="4.1" class="st90" width="0.1" height="17.8"/>
			<rect x="112.5" y="4.1" class="st94" width="0.1" height="17.8"/>
			<rect x="112.6" y="4.1" class="st96" width="0.1" height="17.8"/>
			<rect x="112.7" y="4.1" class="st99" width="0.1" height="17.8"/>
			<rect x="112.7" y="4.1" class="st99" width="0" height="17.8"/>
		</g>
	</g>
	<g>
		<defs>
			<polyline id="SVGID_15_" points="44,0 218,0 218,26 44,26 44,0 			"/>
		</defs>
		<clipPath id="SVGID_16_">
			<use xlink:href="#SVGID_15_"  style="overflow:visible;"/>
		</clipPath>
		<path class="st279" d="M134.2,0h37.5c1.2,0,2.2,1,2.2,2.2v21.6c0,1.2-1,2.2-2.2,2.2h-37.5c-1.2,0-2.2-1-2.2-2.2V2.2
			C132,1,133,0,134.2,0"/>
		<path class="st67" d="M156.3,13c0,5.5-4.5,9.9-10.1,9.9c-5.6,0-10.1-4.4-10.1-9.9c0-5.5,4.5-9.9,10.1-9.9
			C151.8,3.1,156.3,7.5,156.3,13"/>
		<path class="st172" d="M159.7,3.1c-2.6,0-5,1-6.7,2.6c-0.4,0.3-0.7,0.7-1,1h2c0.3,0.3,0.5,0.7,0.8,1.1h-3.6
			c-0.2,0.3-0.4,0.7-0.6,1h4.7c0.2,0.3,0.3,0.7,0.4,1h-5.6c-0.1,0.3-0.2,0.7-0.3,1h6.2c0.1,0.7,0.2,1.4,0.2,2.1
			c0,1.1-0.2,2.2-0.5,3.1h-5.6c0.1,0.4,0.3,0.7,0.4,1h4.7c-0.2,0.4-0.4,0.7-0.6,1h-3.6c0.2,0.4,0.5,0.7,0.8,1h2
			c-0.3,0.4-0.7,0.7-1,1c1.8,1.6,4.2,2.6,6.7,2.6c5.6,0,10.1-4.4,10.1-9.9C169.8,7.5,165.3,3.1,159.7,3.1"/>
		<path class="st279" d="M168.5,18.5c0-0.2,0.1-0.3,0.3-0.3c0.2,0,0.3,0.1,0.3,0.3s-0.1,0.3-0.3,0.3
			C168.6,18.8,168.5,18.7,168.5,18.5 M168.8,18.8c0.1,0,0.2-0.1,0.2-0.2c0-0.1-0.1-0.2-0.2-0.2c-0.1,0-0.2,0.1-0.2,0.2
			C168.5,18.7,168.6,18.8,168.8,18.8 M168.7,18.7L168.7,18.7l-0.1-0.3h0.1l0.1,0l0,0.1l0,0.1l0.1,0.1H168.7l0-0.1h0V18.7z
			 M168.7,18.5L168.7,18.5L168.7,18.5L168.7,18.5L168.7,18.5L168.7,18.5L168.7,18.5L168.7,18.5z"/>
		<path class="st279" d="M143.9,14.1c-0.1,0-0.2,0-0.2,0c-0.6,0-0.9,0.2-0.9,0.6c0,0.3,0.2,0.4,0.4,0.4
			C143.6,15.1,143.9,14.7,143.9,14.1 M144.7,15.9h-0.9l0-0.4c-0.3,0.3-0.6,0.5-1.1,0.5c-0.6,0-1-0.5-1-1.1c0-1,0.7-1.6,1.9-1.6
			c0.1,0,0.3,0,0.4,0c0-0.1,0-0.2,0-0.3c0-0.3-0.2-0.4-0.7-0.4c-0.5,0-1,0.1-1.2,0.2l0.2-0.9c0.5-0.2,0.9-0.2,1.3-0.2
			c0.9,0,1.4,0.4,1.4,1.2c0,0.2,0,0.5-0.1,0.8C144.9,14.3,144.7,15.6,144.7,15.9"/>
		<polygon class="st279" points="141.2,15.9 140.1,15.9 140.8,12 139.4,15.9 138.6,15.9 138.5,12.1 137.9,15.9 136.8,15.9 
			137.7,10.9 139.3,10.9 139.4,13.7 140.3,10.9 142.1,10.9 		"/>
		<path class="st279" d="M161.1,14.1c-0.1,0-0.2,0-0.2,0c-0.6,0-0.9,0.2-0.9,0.6c0,0.3,0.2,0.4,0.4,0.4
			C160.8,15.1,161.1,14.7,161.1,14.1 M161.9,15.9H161l0-0.4c-0.3,0.3-0.6,0.5-1.1,0.5c-0.6,0-1-0.5-1-1.1c0-1,0.7-1.6,1.9-1.6
			c0.1,0,0.3,0,0.4,0c0-0.1,0-0.2,0-0.3c0-0.3-0.2-0.4-0.7-0.4c-0.5,0-1,0.1-1.2,0.2l0.2-0.9c0.5-0.2,0.9-0.2,1.3-0.2
			c0.9,0,1.4,0.4,1.4,1.2c0,0.2,0,0.5-0.1,0.8C162.1,14.3,161.9,15.6,161.9,15.9"/>
		<path class="st279" d="M149.5,15.8c-0.3,0.1-0.5,0.1-0.8,0.1c-0.6,0-0.9-0.3-0.9-0.9c0-0.2,0.1-0.7,0.1-1.1
			c0.1-0.4,0.5-2.8,0.5-2.8h1.1l-0.1,0.6h0.7l-0.1,1h-0.7c-0.1,0.8-0.3,1.7-0.3,1.9c0,0.2,0.1,0.3,0.4,0.3c0.1,0,0.2,0,0.3,0
			L149.5,15.8"/>
		<path class="st279" d="M152.9,15.8c-0.4,0.1-0.7,0.2-1.1,0.2c-1.2,0-1.8-0.6-1.8-1.8c0-1.4,0.8-2.4,1.9-2.4c0.9,0,1.5,0.6,1.5,1.5
			c0,0.3,0,0.6-0.1,1H151c-0.1,0.6,0.3,0.8,0.9,0.8c0.4,0,0.7-0.1,1.1-0.3L152.9,15.8z M152.3,13.4c0-0.1,0.1-0.7-0.5-0.7
			c-0.3,0-0.6,0.3-0.7,0.7H152.3z"/>
		<path class="st279" d="M145.4,13.1c0,0.5,0.3,0.9,0.8,1.1c0.4,0.2,0.5,0.3,0.5,0.5c0,0.3-0.2,0.4-0.6,0.4c-0.3,0-0.6-0.1-1-0.2
			l-0.1,0.9c0.2,0.1,0.5,0.1,1.1,0.1c1.2,0,1.7-0.4,1.7-1.4c0-0.6-0.2-0.9-0.8-1.1c-0.5-0.2-0.5-0.3-0.5-0.4c0-0.2,0.2-0.3,0.5-0.3
			c0.2,0,0.5,0,0.8,0.1l0.2-0.9c-0.3,0-0.7-0.1-1-0.1C145.8,11.7,145.3,12.4,145.4,13.1"/>
		<path class="st279" d="M158.2,11.8c0.3,0,0.6,0.1,1,0.3l0.2-1.1c-0.2-0.1-0.7-0.4-1.2-0.4c-0.7,0-1.3,0.4-1.8,0.9
			c-0.6-0.2-0.9,0.2-1.2,0.6l-0.3,0.1c0-0.1,0-0.3,0-0.4h-1c-0.1,1.3-0.4,2.5-0.6,3.8l0,0.3h1.1c0.2-1.2,0.3-1.9,0.3-2.4l0.4-0.2
			c0.1-0.2,0.3-0.3,0.6-0.3c-0.1,0.3-0.1,0.5-0.1,0.8c0,1.3,0.7,2.2,1.9,2.2c0.3,0,0.6,0,1-0.1l0.2-1.1c-0.4,0.2-0.7,0.3-0.9,0.3
			c-0.6,0-1-0.5-1-1.2C156.8,12.6,157.4,11.8,158.2,11.8"/>
		<polygon class="st282" points="141.5,15.6 140.4,15.6 141.1,11.7 139.7,15.6 138.9,15.6 138.8,11.8 138.2,15.6 137.2,15.6 
			138,10.6 139.6,10.6 139.6,13.7 140.7,10.6 142.4,10.6 		"/>
		<path class="st279" d="M167.4,10.9l-0.2,1.5c-0.3-0.4-0.6-0.7-1-0.7c-0.6,0-1.1,0.4-1.4,1c-0.5-0.1-0.9-0.3-0.9-0.3v0
			c0-0.3,0.1-0.5,0-0.6h-1c-0.1,1.3-0.4,2.5-0.6,3.8l0,0.3h1.1c0.1-0.9,0.3-1.7,0.3-2.3c0.4-0.3,0.6-0.6,0.9-0.6
			c-0.2,0.4-0.3,0.9-0.3,1.3c0,1,0.5,1.7,1.3,1.7c0.4,0,0.7-0.1,1-0.5l-0.1,0.4h1l0.8-5H167.4z M166.1,15c-0.4,0-0.6-0.3-0.6-0.8
			c0-0.8,0.4-1.4,0.8-1.4c0.4,0,0.6,0.3,0.6,0.8C166.9,14.4,166.6,15,166.1,15"/>
		<path class="st282" d="M144.2,13.8c-0.1,0-0.2,0-0.2,0c-0.6,0-0.9,0.2-0.9,0.6c0,0.3,0.2,0.4,0.4,0.4
			C143.9,14.8,144.2,14.4,144.2,13.8 M145,15.6h-0.9l0-0.4c-0.3,0.3-0.6,0.5-1.1,0.5c-0.6,0-1-0.5-1-1.1c0-1,0.7-1.6,1.9-1.6
			c0.1,0,0.3,0,0.4,0c0-0.1,0-0.2,0-0.3c0-0.3-0.2-0.4-0.7-0.4c-0.5,0-1,0.1-1.2,0.2l0.2-0.9c0.5-0.2,0.9-0.2,1.3-0.2
			c0.9,0,1.4,0.4,1.4,1.2c0,0.2,0,0.5-0.1,0.8C145.2,14,145,15.3,145,15.6"/>
		<path class="st282" d="M159.6,10.7l-0.2,1.1c-0.4-0.2-0.7-0.3-1-0.3c-0.8,0-1.4,0.8-1.4,1.9c0,0.8,0.4,1.2,1,1.2
			c0.3,0,0.6-0.1,0.9-0.3l-0.2,1.1c-0.4,0.1-0.7,0.1-1,0.1c-1.2,0-1.9-0.8-1.9-2.2c0-1.8,1-3.1,2.5-3.1
			C158.9,10.5,159.5,10.7,159.6,10.7"/>
		<path class="st282" d="M161.4,13.8c-0.1,0-0.2,0-0.2,0c-0.6,0-0.9,0.2-0.9,0.6c0,0.3,0.2,0.4,0.4,0.4
			C161.1,14.8,161.4,14.4,161.4,13.8 M162.2,15.6h-0.9l0-0.4c-0.3,0.3-0.6,0.5-1.1,0.5c-0.6,0-1-0.5-1-1.1c0-1,0.7-1.6,1.9-1.6
			c0.1,0,0.3,0,0.4,0c0-0.1,0-0.2,0-0.3c0-0.3-0.2-0.4-0.7-0.4c-0.5,0-1,0.1-1.2,0.2l0.2-0.9c0.5-0.2,0.9-0.2,1.3-0.2
			c0.9,0,1.4,0.4,1.4,1.2c0,0.2,0,0.5-0.1,0.8C162.4,14,162.2,15.3,162.2,15.6"/>
		<path class="st282" d="M149.9,15.5c-0.3,0.1-0.5,0.1-0.8,0.1c-0.6,0-0.9-0.3-0.9-0.9c0-0.2,0.1-0.7,0.2-1.1
			c0.1-0.4,0.5-2.8,0.5-2.8h1.1l-0.1,0.6h0.6l-0.1,1h-0.6c-0.1,0.8-0.3,1.7-0.3,1.9c0,0.2,0.1,0.3,0.4,0.3c0.1,0,0.2,0,0.3,0
			L149.9,15.5"/>
		<path class="st282" d="M153.2,15.5c-0.4,0.1-0.7,0.2-1.1,0.2c-1.2,0-1.8-0.6-1.8-1.8c0-1.4,0.8-2.4,1.9-2.4c0.9,0,1.5,0.6,1.5,1.5
			c0,0.3,0,0.6-0.1,1h-2.2c-0.1,0.6,0.3,0.8,0.9,0.8c0.4,0,0.7-0.1,1.1-0.3L153.2,15.5z M152.6,13.1c0-0.1,0.1-0.7-0.5-0.7
			c-0.3,0-0.6,0.3-0.7,0.7H152.6z"/>
		<path class="st282" d="M145.7,12.8c0,0.5,0.3,0.9,0.8,1.1c0.4,0.2,0.5,0.3,0.5,0.5c0,0.3-0.2,0.4-0.6,0.4c-0.3,0-0.6-0.1-1-0.2
			l-0.2,0.9c0.2,0.1,0.5,0.1,1.1,0.1c1.2,0,1.7-0.4,1.7-1.4c0-0.6-0.2-0.9-0.8-1.1c-0.5-0.2-0.5-0.3-0.5-0.4c0-0.2,0.2-0.3,0.5-0.3
			c0.2,0,0.5,0,0.8,0.1l0.2-0.9c-0.3,0-0.7-0.1-1-0.1C146.1,11.4,145.7,12.1,145.7,12.8"/>
		<path class="st282" d="M168,15.6h-1l0.1-0.4c-0.3,0.3-0.6,0.5-1,0.5c-0.8,0-1.3-0.7-1.3-1.7c0-1.4,0.8-2.5,1.8-2.5
			c0.4,0,0.7,0.2,1,0.6l0.2-1.5h1.1L168,15.6z M166.4,14.7c0.5,0,0.9-0.6,0.9-1.4c0-0.5-0.2-0.8-0.6-0.8c-0.5,0-0.8,0.6-0.8,1.4
			C165.8,14.4,166,14.7,166.4,14.7"/>
		<path class="st282" d="M163.2,11.5c-0.1,1.3-0.4,2.5-0.6,3.8l0,0.3h1.1c0.4-2.5,0.5-3,1.1-2.9c0.1-0.5,0.3-1,0.4-1.2
			c-0.5-0.1-0.7,0.2-1,0.6c0-0.2,0.1-0.4,0.1-0.6H163.2"/>
		<path class="st282" d="M154.2,11.5c-0.1,1.3-0.4,2.5-0.6,3.8l0,0.3h1.1c0.4-2.5,0.5-3,1.1-2.9c0.1-0.5,0.3-1,0.4-1.2
			c-0.5-0.1-0.7,0.2-1,0.6c0-0.2,0.1-0.4,0.1-0.6H154.2"/>
		<path class="st282" d="M168.5,15.3c0-0.2,0.1-0.3,0.3-0.3c0.2,0,0.3,0.1,0.3,0.3c0,0.2-0.1,0.3-0.3,0.3
			C168.6,15.6,168.5,15.5,168.5,15.3 M168.8,15.5c0.1,0,0.2-0.1,0.2-0.2c0-0.1-0.1-0.2-0.2-0.2c-0.1,0-0.2,0.1-0.2,0.2
			C168.5,15.4,168.6,15.5,168.8,15.5 M168.7,15.4L168.7,15.4l-0.1-0.3h0.1l0.1,0l0,0.1l0,0.1l0.1,0.1H168.7l0-0.1h0V15.4z
			 M168.7,15.3L168.7,15.3L168.7,15.3L168.7,15.3L168.7,15.3L168.7,15.3L168.7,15.3L168.7,15.3z"/>
		<path class="st98" d="M178.2,0h37.5c1.2,0,2.2,1,2.2,2.2v21.6c0,1.2-1,2.2-2.2,2.2h-37.5c-1.2,0-2.2-1-2.2-2.2V2.2
			C176,1,177,0,178.2,0"/>
		<polygon class="st282" points="191.6,18.5 193.4,7.6 196.4,7.6 194.6,18.5 		"/>
		<path class="st282" d="M205.4,7.9c-0.6-0.2-1.5-0.5-2.7-0.5c-3,0-5,1.5-5.1,3.6c0,1.6,1.5,2.4,2.6,2.9c1.2,0.5,1.6,0.9,1.5,1.3
			c0,0.7-0.9,1.1-1.8,1.1c-1.2,0-1.8-0.2-2.8-0.6l-0.4-0.2l-0.4,2.4c0.7,0.3,2,0.6,3.3,0.6c3.1,0,5.2-1.4,5.2-3.7
			c0-1.2-0.8-2.2-2.5-2.9c-1-0.5-1.7-0.8-1.7-1.3c0-0.4,0.5-0.9,1.7-0.9c1,0,1.7,0.2,2.2,0.4l0.3,0.1L205.4,7.9"/>
		<path class="st282" d="M213.1,7.6h-2.3c-0.7,0-1.3,0.2-1.6,0.9l-4.4,9.9h3.1c0,0,0.5-1.3,0.6-1.6c0.3,0,3.4,0,3.8,0
			c0.1,0.4,0.4,1.6,0.4,1.6h2.8L213.1,7.6z M209.4,14.6c0.2-0.6,1.2-3,1.2-3c0,0,0.2-0.6,0.4-1l0.2,0.9c0,0,0.6,2.6,0.7,3.1H209.4z"
			/>
		<path class="st282" d="M189,7.6l-2.9,7.4l-0.3-1.5c-0.5-1.7-2.2-3.6-4.1-4.5l2.7,9.5l3.2,0l4.7-10.8H189"/>
		<path class="st227" d="M183.4,7.6h-4.8l0,0.2c3.7,0.9,6.2,3.1,7.3,5.7l-1-5C184.6,7.9,184,7.7,183.4,7.6"/>
	</g>
	<path class="st232" d="M2.2,0h37.5C41,0,42,1,42,2.2v21.6c0,1.2-1,2.2-2.2,2.2H2.2C1,26,0,25,0,23.8V2.2C0,1,1,0,2.2,0"/>
	<rect x="2.7" y="8.5" class="st173" width="6.2" height="5.5"/>
	<polygon class="st164" points="4.4,17.1 4.4,16.9 4.1,16.9 4.1,16.3 3.9,16.3 3.8,16.9 3.2,16.9 3.8,15.5 3.6,15.4 2.9,16.9 
		2.9,17.1 3.8,17.1 3.8,17.7 4.1,17.7 4.1,17.1 	"/>
	<path class="st164" d="M5.5,15.4c-0.2,0-0.4,0.1-0.6,0.3L5,15.9c0.1-0.1,0.3-0.2,0.5-0.2c0.2,0,0.4,0.1,0.4,0.4
		c0,0.3-0.2,0.4-0.4,0.4H5.3l0,0.2h0.2c0.3,0,0.5,0.1,0.5,0.4c0,0.3-0.2,0.4-0.5,0.4c-0.2,0-0.4-0.1-0.5-0.2l-0.2,0.1
		c0.2,0.2,0.4,0.3,0.7,0.3c0.5,0,0.8-0.3,0.8-0.7c0-0.3-0.2-0.5-0.5-0.5c0.2,0,0.4-0.2,0.4-0.5C6.2,15.7,5.9,15.4,5.5,15.4z"/>
	<path class="st164" d="M7.4,15.4c-0.3,0-0.5,0.1-0.7,0.3l0.2,0.1c0.1-0.2,0.3-0.2,0.5-0.2c0.2,0,0.4,0.2,0.4,0.4
		c0,0.4-0.2,0.6-1,1.4v0.2h1.3l0-0.2h-1c0.7-0.7,1-1,1-1.4C8.1,15.7,7.8,15.4,7.4,15.4z"/>
	<polygon class="st164" points="10.1,17.5 9.7,17.5 9.7,15.5 9.4,15.5 8.8,15.9 8.9,16.1 9.4,15.8 9.4,17.5 8.9,17.5 8.9,17.7 
		10.1,17.7 	"/>
	<polygon class="st164" points="14,17.1 14,16.9 13.7,16.9 13.7,16.3 13.5,16.3 13.5,16.9 12.8,16.9 13.4,15.5 13.2,15.4 12.6,16.9 
		12.6,17.1 13.5,17.1 13.5,17.7 13.7,17.7 13.7,17.1 	"/>
	<path class="st164" d="M15.1,15.4c-0.2,0-0.4,0.1-0.6,0.3l0.1,0.2c0.1-0.1,0.3-0.2,0.5-0.2c0.2,0,0.4,0.1,0.4,0.4
		c0,0.3-0.2,0.4-0.4,0.4H15l0,0.2h0.2c0.3,0,0.5,0.1,0.5,0.4c0,0.3-0.2,0.4-0.5,0.4c-0.2,0-0.4-0.1-0.5-0.2l-0.2,0.1
		c0.2,0.2,0.4,0.3,0.7,0.3c0.5,0,0.8-0.3,0.8-0.7c0-0.3-0.2-0.5-0.5-0.5c0.2,0,0.4-0.2,0.4-0.5C15.8,15.7,15.5,15.4,15.1,15.4z"/>
	<path class="st164" d="M17.1,15.4c-0.3,0-0.5,0.1-0.7,0.3l0.2,0.1c0.1-0.2,0.3-0.2,0.5-0.2c0.2,0,0.4,0.2,0.4,0.4
		c0,0.4-0.2,0.6-1,1.4v0.2h1.3l0-0.2h-1c0.7-0.7,1-1,1-1.4C17.7,15.7,17.5,15.4,17.1,15.4z"/>
	<polygon class="st164" points="19.8,17.5 19.3,17.5 19.3,15.5 19.1,15.5 18.4,15.9 18.5,16.1 19.1,15.8 19.1,17.5 18.5,17.5 
		18.5,17.7 19.8,17.7 	"/>
	<polygon class="st164" points="23.7,17.1 23.7,16.9 23.4,16.9 23.4,16.3 23.2,16.3 23.1,16.9 22.5,16.9 23.1,15.5 22.9,15.4 
		22.2,16.9 22.2,17.1 23.1,17.1 23.1,17.7 23.4,17.7 23.4,17.1 	"/>
	<path class="st164" d="M24.8,15.4c-0.2,0-0.4,0.1-0.6,0.3l0.1,0.2c0.1-0.1,0.3-0.2,0.5-0.2c0.2,0,0.4,0.1,0.4,0.4
		c0,0.3-0.2,0.4-0.4,0.4h-0.1l0,0.2h0.2c0.3,0,0.5,0.1,0.5,0.4c0,0.3-0.2,0.4-0.5,0.4c-0.2,0-0.4-0.1-0.5-0.2l-0.2,0.1
		c0.2,0.2,0.4,0.3,0.7,0.3c0.5,0,0.8-0.3,0.8-0.7c0-0.3-0.2-0.5-0.5-0.5c0.2,0,0.4-0.2,0.4-0.5C25.5,15.7,25.2,15.4,24.8,15.4z"/>
	<path class="st164" d="M26.7,15.4c-0.3,0-0.5,0.1-0.7,0.3l0.2,0.1c0.1-0.2,0.3-0.2,0.5-0.2c0.2,0,0.4,0.2,0.4,0.4
		c0,0.4-0.2,0.6-1,1.4v0.2h1.3l0-0.2h-1c0.7-0.7,1-1,1-1.4C27.4,15.7,27.1,15.4,26.7,15.4z"/>
	<polygon class="st164" points="29.4,17.5 29,17.5 29,15.5 28.7,15.5 28.1,15.9 28.2,16.1 28.7,15.8 28.7,17.5 28.2,17.5 28.2,17.7 
		29.4,17.7 	"/>
	<polygon class="st164" points="33.3,17.1 33.3,16.9 33,16.9 33,16.3 32.8,16.3 32.8,16.9 32.2,16.9 32.7,15.5 32.5,15.4 31.9,16.9 
		31.9,17.1 32.8,17.1 32.8,17.7 33,17.7 33,17.1 	"/>
	<path class="st164" d="M34.4,15.4c-0.2,0-0.4,0.1-0.6,0.3l0.1,0.2c0.1-0.1,0.3-0.2,0.5-0.2c0.2,0,0.4,0.1,0.4,0.4
		c0,0.3-0.2,0.4-0.4,0.4h-0.1l0,0.2h0.2c0.3,0,0.5,0.1,0.5,0.4c0,0.3-0.2,0.4-0.5,0.4c-0.2,0-0.4-0.1-0.5-0.2l-0.2,0.1
		c0.2,0.2,0.4,0.3,0.7,0.3c0.5,0,0.8-0.3,0.8-0.7c0-0.3-0.2-0.5-0.5-0.5c0.2,0,0.4-0.2,0.4-0.5C35.1,15.7,34.8,15.4,34.4,15.4z"/>
	<path class="st164" d="M36.4,15.4c-0.3,0-0.5,0.1-0.7,0.3l0.2,0.1c0.1-0.2,0.3-0.2,0.5-0.2c0.2,0,0.4,0.2,0.4,0.4
		c0,0.4-0.2,0.6-1,1.4v0.2H37l0-0.2h-1c0.7-0.7,1-1,1-1.4C37,15.7,36.8,15.4,36.4,15.4z"/>
	<polygon class="st164" points="39.1,17.5 38.6,17.5 38.6,15.5 38.4,15.5 37.7,15.9 37.9,16.1 38.4,15.8 38.4,17.5 37.8,17.5 
		37.8,17.7 39.1,17.7 	"/>
	<polyline class="st150" points="3.7,21.5 3.5,21.5 3.1,21.6 3.1,21.8 3.5,21.7 3.5,22.9 3.1,22.9 3.1,23.1 4.1,23.1 4.1,22.9 
		3.7,22.9 3.7,21.5 	"/>
	<polyline class="st150" points="5.1,21.5 4.9,21.5 4.5,21.6 4.5,21.8 4.9,21.7 4.9,22.9 4.5,22.9 4.5,23.1 5.5,23.1 5.5,22.9 
		5.1,22.9 5.1,21.5 	"/>
	<path class="st150" d="M7,21.5l-0.2,0l-0.3,0.1v0.2l0.2-0.1l0.2,0c0.1,0,0.2,0,0.2,0.1L7.4,22l0,0.2l-0.1,0.2c0,0-0.1,0.1-0.3,0.3
		c-0.1,0.1-0.3,0.3-0.3,0.3v0.2h1v-0.2H6.8c0.2-0.2,0.3-0.3,0.4-0.4s0.2-0.2,0.2-0.2l0.1-0.2l0-0.2c0-0.1-0.1-0.3-0.2-0.3
		C7.3,21.5,7.2,21.5,7,21.5"/>
	<path class="st150" d="M8.5,21.5l-0.2,0L8,21.5v0.2l0.2-0.1l0.2,0c0.1,0,0.2,0,0.3,0.1l0.1,0.2l-0.1,0.2c-0.1,0-0.1,0.1-0.2,0.1
		H8.3v0.2h0.2c0.1,0,0.2,0,0.3,0.1c0.1,0.1,0.1,0.1,0.1,0.2c0,0.1,0,0.2-0.1,0.2C8.7,22.9,8.6,23,8.4,23l-0.2,0L8,22.9v0.2l0.2,0.1
		l0.2,0c0.2,0,0.4,0,0.5-0.1c0.1-0.1,0.2-0.2,0.2-0.4c0-0.1,0-0.2-0.1-0.3c-0.1-0.1-0.1-0.1-0.2-0.1c0.1,0,0.2-0.1,0.2-0.1L9,21.9
		c0-0.1,0-0.2-0.1-0.3C8.8,21.5,8.7,21.5,8.5,21.5"/>
	<path class="st150" d="M11.1,21.5h-0.9v0.8l0.2-0.1l0.2,0c0.1,0,0.2,0,0.3,0.1c0.1,0.1,0.1,0.2,0.1,0.3s0,0.2-0.1,0.3
		c-0.1,0.1-0.2,0.1-0.3,0.1l-0.2,0l-0.2-0.1v0.2l0.2,0.1l0.2,0c0.2,0,0.4,0,0.5-0.1c0.1-0.1,0.2-0.2,0.2-0.4c0-0.2-0.1-0.3-0.2-0.4
		c-0.1-0.1-0.3-0.1-0.4-0.1l-0.1,0l-0.1,0v-0.4h0.7V21.5"/>
	<path class="st150" d="M12.1,23c-0.1,0-0.2,0-0.2-0.1c-0.1-0.1-0.1-0.1-0.1-0.2c0-0.1,0-0.2,0.1-0.2c0.1-0.1,0.1-0.1,0.2-0.1
		c0.1,0,0.2,0,0.2,0.1c0.1,0.1,0.1,0.1,0.1,0.2c0,0.1,0,0.2-0.1,0.2C12.3,22.9,12.2,23,12.1,23 M12.1,22.2c-0.1,0-0.2,0-0.2-0.1
		l-0.1-0.2l0.1-0.2c0.1,0,0.1-0.1,0.2-0.1c0.1,0,0.2,0,0.2,0.1l0.1,0.2l-0.1,0.2C12.3,22.2,12.2,22.2,12.1,22.2 M12.1,21.5
		c-0.2,0-0.3,0-0.4,0.1c-0.1,0.1-0.1,0.2-0.1,0.3c0,0.1,0,0.2,0.1,0.2c0.1,0.1,0.1,0.1,0.2,0.1c-0.1,0-0.2,0.1-0.2,0.1
		c-0.1,0.1-0.1,0.2-0.1,0.3c0,0.2,0,0.3,0.1,0.4c0.1,0.1,0.2,0.1,0.4,0.1c0.2,0,0.3,0,0.4-0.1c0.1-0.1,0.1-0.2,0.1-0.4
		c0-0.1,0-0.2-0.1-0.3c-0.1-0.1-0.1-0.1-0.2-0.1c0.1,0,0.2-0.1,0.2-0.1c0.1-0.1,0.1-0.1,0.1-0.2c0-0.1,0-0.2-0.1-0.3
		C12.4,21.5,12.3,21.5,12.1,21.5"/>
	<polyline class="st150" points="17.9,21.5 17.7,21.5 17.3,21.5 17.3,21.7 17.7,21.7 17.7,22.9 17.3,22.9 17.3,23.1 18.2,23.1 
		18.2,22.9 17.9,22.9 17.9,21.5 	"/>
	<path class="st150" d="M19.1,21.4l-0.2,0l-0.2,0.1v0.2l0.2-0.1l0.2,0c0.1,0,0.2,0,0.3,0.1l0.1,0.2L19.3,22c-0.1,0-0.1,0.1-0.3,0.1
		h-0.2v0.2h0.2c0.1,0,0.2,0,0.3,0.1c0.1,0.1,0.1,0.1,0.1,0.2c0,0.1,0,0.2-0.1,0.2c-0.1,0.1-0.2,0.1-0.3,0.1l-0.2,0l-0.2-0.1V23
		l0.2,0.1l0.2,0c0.2,0,0.4,0,0.5-0.1c0.1-0.1,0.2-0.2,0.2-0.4c0-0.1,0-0.2-0.1-0.3c-0.1-0.1-0.1-0.1-0.2-0.1c0.1,0,0.2-0.1,0.2-0.1
		l0.1-0.2c0-0.1,0-0.2-0.1-0.3C19.4,21.5,19.3,21.4,19.1,21.4"/>
	<path class="st150" d="M20.5,21.4l-0.2,0L20,21.5v0.2l0.2-0.1l0.2,0c0.1,0,0.2,0,0.2,0.1l0.1,0.2l0,0.2l-0.1,0.2
		c0,0-0.1,0.1-0.3,0.3c-0.1,0.1-0.3,0.3-0.3,0.3v0.2h1v-0.2h-0.8c0.2-0.2,0.3-0.3,0.4-0.4c0.1-0.1,0.2-0.2,0.2-0.2l0.1-0.2l0-0.2
		c0-0.1-0.1-0.3-0.2-0.3C20.8,21.5,20.7,21.4,20.5,21.4"/>
	<polyline class="st150" points="22.2,21.5 21.9,21.5 21.5,21.5 21.5,21.7 21.9,21.7 21.9,22.9 21.6,22.9 21.6,23.1 22.5,23.1 
		22.5,22.9 22.2,22.9 22.2,21.5 	"/>
	<path class="st150" d="M24.1,21.4l-0.2,0l-0.2,0.1v0.2l0.2-0.1l0.2,0c0.1,0,0.2,0,0.3,0.1l0.1,0.2L24.3,22c-0.1,0-0.1,0.1-0.3,0.1
		h-0.2v0.2h0.2c0.1,0,0.2,0,0.3,0.1c0.1,0.1,0.1,0.1,0.1,0.2c0,0.1,0,0.2-0.1,0.2c-0.1,0.1-0.2,0.1-0.3,0.1l-0.2,0l-0.2-0.1V23
		l0.2,0.1l0.2,0c0.2,0,0.4,0,0.5-0.1c0.1-0.1,0.2-0.2,0.2-0.4c0-0.1,0-0.2-0.1-0.3c-0.1-0.1-0.1-0.1-0.2-0.1c0.1,0,0.2-0.1,0.2-0.1
		l0.1-0.2c0-0.1,0-0.2-0.1-0.3C24.4,21.5,24.3,21.4,24.1,21.4"/>
	<path class="st150" d="M25.1,22.5l0.6-0.9v0.9H25.1 M25.9,21.5h-0.3l-0.7,1v0.2h0.7v0.4h0.2v-0.4h0.2v-0.2h-0.2V21.5"/>
	<path class="st150" d="M27.4,21.5h-0.9v0.8l0.2-0.1l0.2,0c0.1,0,0.2,0,0.3,0.1c0.1,0.1,0.1,0.2,0.1,0.3c0,0.1,0,0.2-0.1,0.3
		c-0.1,0.1-0.2,0.1-0.3,0.1l-0.2,0l-0.2-0.1V23l0.2,0.1l0.2,0c0.2,0,0.4,0,0.5-0.1c0.1-0.1,0.2-0.2,0.2-0.4c0-0.2-0.1-0.3-0.2-0.4
		C27.3,22,27.1,22,26.9,22l-0.1,0l-0.1,0v-0.4h0.7V21.5"/>
	<path class="st150" d="M28.8,21.5H28v0.8l0.2-0.1l0.2,0c0.1,0,0.2,0,0.3,0.1c0.1,0.1,0.1,0.2,0.1,0.3c0,0.1,0,0.2-0.1,0.3
		c-0.1,0.1-0.2,0.1-0.3,0.1l-0.2,0l-0.2-0.1V23l0.2,0.1l0.2,0c0.2,0,0.4,0,0.5-0.1c0.1-0.1,0.2-0.2,0.2-0.4c0-0.2-0.1-0.3-0.2-0.4
		C28.7,22,28.5,22,28.4,22l-0.1,0l-0.1,0v-0.4h0.7V21.5"/>
	<path d="M222.2,0h37.5c1.2,0,2.2,1,2.2,2.2v21.6c0,1.2-1,2.2-2.2,2.2h-37.5c-1.2,0-2.2-1-2.2-2.2V2.2C220,1,221,0,222.2,0z"/>
	<path class="st258" d="M257.8,13c0,5.5-4.5,9.9-10.1,9.9c-5.5,0-10.1-4.4-10.1-9.9s4.5-9.9,10.1-9.9C253.3,3.1,257.8,7.5,257.8,13"
		/>
	<path class="st235" d="M240,19.3c-0.3-0.3-0.5-0.7-0.8-1h3.6c0.2-0.3,0.4-0.7,0.6-1h-4.7c-0.2-0.3-0.3-0.7-0.4-1h5.6
		c0.3-1,0.5-2,0.5-3.1c0-0.7-0.1-1.4-0.2-2.1h-6.2c0.1-0.4,0.2-0.7,0.3-1h5.6c-0.1-0.4-0.3-0.7-0.4-1h-4.7c0.2-0.4,0.4-0.7,0.6-1
		h3.6c-0.2-0.4-0.5-0.7-0.8-1h-2c0.3-0.4,0.7-0.7,1-1c-1.8-1.6-4.2-2.6-6.7-2.6c-5.6,0-10.1,4.4-10.1,9.9s4.5,9.9,10.1,9.9
		c2.6,0,5-1,6.7-2.6c0.4-0.3,0.7-0.7,1-1.1H240"/>
	<path d="M256.5,18.5c0-0.2,0.1-0.3,0.3-0.3c0.2,0,0.3,0.1,0.3,0.3s-0.1,0.3-0.3,0.3C256.6,18.8,256.5,18.7,256.5,18.5z M256.8,18.8
		c0.1,0,0.2-0.1,0.2-0.2c0-0.1-0.1-0.2-0.2-0.2c-0.1,0-0.2,0.1-0.2,0.2C256.5,18.7,256.6,18.8,256.8,18.8z M256.7,18.7L256.7,18.7
		l-0.1-0.3h0.1l0.1,0l0,0.1l0,0.1l0.1,0.1H256.7l0-0.1h0V18.7z M256.7,18.5L256.7,18.5L256.7,18.5L256.7,18.5L256.7,18.5L256.7,18.5
		L256.7,18.5L256.7,18.5z"/>
	<path d="M240.9,15.7c-0.4,0.1-0.8,0.2-1.3,0.2c-1.4,0-2.1-0.6-2.1-1.8c0-1.4,0.9-2.4,2.2-2.4c1,0,1.7,0.6,1.7,1.5
		c0,0.3,0,0.6-0.2,1h-2.5c-0.1,0.6,0.3,0.8,1.1,0.8c0.4,0,0.8-0.1,1.3-0.3L240.9,15.7z M240.2,13.2c0-0.1,0.1-0.7-0.6-0.7
		c-0.4,0-0.7,0.3-0.8,0.7H240.2z"/>
	<path d="M241.7,13c0,0.5,0.3,0.9,1,1.1c0.5,0.2,0.6,0.3,0.6,0.5c0,0.3-0.2,0.4-0.7,0.4c-0.4,0-0.7,0-1.1-0.2l-0.2,0.9
		c0.4,0.1,0.9,0.1,1.3,0.1c1.3,0,2-0.4,2-1.4c0-0.6-0.3-0.9-0.9-1.1c-0.5-0.2-0.6-0.3-0.6-0.4c0-0.2,0.2-0.3,0.6-0.3
		c0.2,0,0.6,0,0.9,0.1l0.2-1c-0.3,0-0.8-0.1-1.1-0.1C242.2,11.6,241.7,12.2,241.7,13"/>
	<path d="M236.8,15.8h-1l0-0.4c-0.3,0.3-0.7,0.5-1.3,0.5c-0.7,0-1.1-0.5-1.1-1.1c0-1,0.8-1.6,2.2-1.6c0.1,0,0.3,0,0.5,0
		c0-0.1,0-0.2,0-0.3c0-0.3-0.2-0.4-0.8-0.4c-0.6,0-1,0.1-1.3,0.2l0.2-0.9c0.6-0.2,1-0.2,1.5-0.2c1.1,0,1.7,0.4,1.7,1.2
		c0,0.2-0.1,0.6-0.1,0.8C237.1,13.9,236.8,15.4,236.8,15.8z M235.8,13.9c-0.1,0-0.2,0-0.3,0c-0.7,0-1.1,0.2-1.1,0.6
		c0,0.3,0.2,0.4,0.5,0.4C235.5,15,235.8,14.5,235.8,13.9z"/>
	<path d="M246.7,15.7c-0.3,0.1-0.6,0.1-0.9,0.1c-0.6,0-1-0.3-1-0.9c0-0.2,0.1-0.9,0.2-1.1c0-0.2,0.6-3.2,0.6-3.2h1.2l-0.2,1h0.6
		l-0.2,1h-0.6c0,0-0.4,1.7-0.4,1.9c0,0.2,0.1,0.3,0.4,0.3c0.1,0,0.3,0,0.3,0L246.7,15.7"/>
	<path d="M252.3,11.6c-0.9,0-1.6,0.4-2,1l0.4-0.9c-0.7-0.2-1.1,0.1-1.5,0.6l-0.1,0.2v-0.7h-1.2c-0.2,1.3-0.4,2.6-0.7,3.8l-0.1,0.3
		h1.3c0.1-0.6,0.2-1.2,0.3-1.6c0.3-1.1,0.7-1.5,1.4-1.3c-0.2,0.3-0.2,0.7-0.2,1.1c0,1,0.6,1.9,2,1.9c1.4,0,2.4-0.7,2.4-2.4
		C254.2,12.4,253.6,11.6,252.3,11.6z M251.9,14.8c-0.4,0-0.7-0.4-0.7-0.9c0-0.7,0.4-1.4,1-1.4c0.5,0,0.7,0.4,0.7,0.8
		C252.9,14.3,252.5,14.8,251.9,14.8z"/>
	<polyline points="232.7,15.8 231.4,15.8 232.2,11.9 230.5,15.8 229.3,15.8 229.1,11.9 228.4,15.8 227.2,15.8 228.2,10.8 
		230.2,10.8 230.3,13.6 231.6,10.8 233.7,10.8 232.7,15.8 	"/>
	<path class="st164" d="M254.3,15.1c0-0.2,0.1-0.3,0.3-0.3c0.2,0,0.3,0.1,0.3,0.3s-0.1,0.3-0.3,0.3
		C254.5,15.5,254.3,15.3,254.3,15.1z M254.7,15.4c0.1,0,0.2-0.1,0.2-0.2c0-0.1-0.1-0.2-0.2-0.2c-0.1,0-0.2,0.1-0.2,0.2
		C254.4,15.3,254.5,15.4,254.7,15.4z M254.6,15.3L254.6,15.3l-0.1-0.3h0.1l0.1,0l0,0.1l0,0.1l0.1,0.1H254.6l0-0.1h0V15.3z
		 M254.6,15.1L254.6,15.1L254.6,15.1L254.6,15.1L254.6,15.1L254.6,15.1L254.6,15.1L254.6,15.1z"/>
	<path class="st164" d="M241.2,15.4c-0.4,0.1-0.8,0.2-1.3,0.2c-1.4,0-2.1-0.6-2.1-1.8c0-1.4,0.9-2.4,2.2-2.4c1,0,1.7,0.6,1.7,1.5
		c0,0.3,0,0.6-0.2,1H239c-0.1,0.6,0.3,0.8,1.1,0.8c0.4,0,0.8-0.1,1.3-0.3L241.2,15.4z M240.5,12.9c0-0.1,0.1-0.7-0.6-0.7
		c-0.4,0-0.7,0.3-0.8,0.7H240.5z"/>
	<path class="st164" d="M242,12.7c0,0.5,0.3,0.9,1,1.1c0.5,0.2,0.6,0.3,0.6,0.5c0,0.3-0.2,0.4-0.7,0.4c-0.4,0-0.7,0-1.1-0.2
		l-0.2,0.9c0.4,0.1,0.9,0.1,1.3,0.1c1.3,0,2-0.4,2-1.4c0-0.6-0.3-0.9-0.9-1.1c-0.5-0.2-0.6-0.3-0.6-0.4c0-0.2,0.2-0.3,0.6-0.3
		c0.3,0,0.6,0,0.9,0.1l0.2-1c-0.3,0-0.8-0.1-1.1-0.1C242.5,11.3,242,11.9,242,12.7"/>
	<path class="st164" d="M237.1,15.5h-1l0-0.4c-0.3,0.3-0.7,0.5-1.3,0.5c-0.7,0-1.1-0.5-1.1-1.1c0-1,0.8-1.6,2.2-1.6
		c0.1,0,0.3,0,0.5,0c0-0.1,0-0.2,0-0.3c0-0.3-0.2-0.4-0.8-0.4c-0.6,0-1,0.1-1.3,0.2l0.2-0.9c0.6-0.2,1-0.2,1.5-0.2
		c1.1,0,1.7,0.4,1.7,1.2c0,0.2-0.1,0.6-0.1,0.8C237.4,13.5,237.1,15.1,237.1,15.5z M236.2,13.6c-0.1,0-0.2,0-0.3,0
		c-0.7,0-1.1,0.2-1.1,0.6c0,0.3,0.2,0.4,0.5,0.4C235.8,14.7,236.1,14.2,236.2,13.6z"/>
	<path class="st164" d="M247,15.4c-0.3,0.1-0.6,0.1-0.9,0.1c-0.6,0-1-0.3-1-0.9c0-0.2,0.1-0.9,0.2-1.1c0-0.2,0.6-3.2,0.6-3.2h1.2
		l-0.2,1h0.6l-0.2,1h-0.6c0,0-0.4,1.7-0.4,1.9c0,0.2,0.1,0.3,0.4,0.3c0.1,0,0.3,0,0.3,0L247,15.4"/>
	<path class="st164" d="M253.2,13.1c0,0.9-0.4,1.5-1,1.5c-0.4,0-0.7-0.4-0.7-0.9c0-0.7,0.4-1.4,1-1.4
		C253,12.2,253.2,12.6,253.2,13.1z M254.6,13.1c0-1-0.7-1.8-2-1.8c-1.5,0-2.4,1-2.4,2.4c0,1,0.6,1.9,2,1.9
		C253.5,15.5,254.6,14.8,254.6,13.1z"/>
	<path class="st164" d="M248.1,11.4c-0.2,1.3-0.4,2.6-0.7,3.8l-0.1,0.3h1.3c0.5-2.5,0.6-3.2,1.6-2.9l0.5-1.2
		c-0.7-0.2-1.1,0.1-1.5,0.6c0-0.2,0.1-0.4,0.1-0.6H248.1"/>
	<polyline class="st164" points="233,15.5 231.7,15.5 232.5,11.6 230.8,15.5 229.6,15.5 229.4,11.6 228.7,15.5 227.6,15.5 
		228.5,10.4 230.5,10.4 230.6,13.6 232,10.4 234,10.4 233,15.5 	"/>
	<path class="st164" d="M266.2,0h37.5c1.2,0,2.2,1,2.2,2.2v21.6c0,1.2-1,2.2-2.2,2.2h-37.5c-1.2,0-2.2-1-2.2-2.2V2.2
		C264,1,265,0,266.2,0z"/>
	<path class="st238" d="M275.3,3h8c1.1,0,1.8,0.9,1.5,2l-3.7,15.9c-0.3,1.1-1.4,2-2.5,2h-8c-1.1,0-1.8-0.9-1.5-2L272.8,5
		C273.1,3.9,274.2,3,275.3,3L275.3,3z"/>
	<path class="st237" d="M282.6,3h9.2c1.1,0,0.6,0.9,0.3,2l-3.7,15.9c-0.3,1.1-0.2,2-1.3,2h-9.2c-1.1,0-1.8-0.9-1.5-2L280.1,5
		C280.4,3.9,281.5,3,282.6,3L282.6,3z"/>
	<path class="st241" d="M291.4,3h8c1.1,0,1.8,0.9,1.5,2l-3.7,15.9c-0.3,1.1-1.4,2-2.5,2h-8c-1.1,0-1.8-0.9-1.5-2L288.9,5
		C289.2,3.9,290.3,3,291.4,3L291.4,3z"/>
	<path class="st159" d="M290.1,18h0.8l0.2-0.7h-0.7L290.1,18z M290.7,16L290.7,16l-0.3,0.9c0,0,0.3-0.1,0.4-0.2
		c0.2,0,0.4-0.1,0.4-0.1l0.2-0.6L290.7,16L290.7,16z M291.1,14.8L291.1,14.8l-0.2,0.8c0,0,0.3-0.1,0.4-0.2c0.2,0,0.4-0.1,0.4-0.1
		l0.2-0.6L291.1,14.8L291.1,14.8z M292.7,14.8L292.7,14.8l-1,3.2h0.3l-0.2,0.7h-0.3l-0.1,0.2h-0.9l0.1-0.2h-1.9l0.2-0.6h0.2l1-3.3
		l0.2-0.7h0.9l-0.1,0.3c0,0,0.2-0.2,0.5-0.2c0.2-0.1,1.6-0.1,1.6-0.1l-0.2,0.7L292.7,14.8L292.7,14.8z"/>
	<path class="st159" d="M293.1,14.1h1l0,0.4c0,0.1,0,0.1,0.2,0.1h0.2l-0.2,0.6h-0.5c-0.5,0-0.6-0.2-0.6-0.4L293.1,14.1L293.1,14.1z
		 M293.2,17.1h-1l0.2-0.5h1.1l0.2-0.5h-1.1l0.2-0.6h3l-0.2,0.6h-1l-0.2,0.5h1l-0.2,0.5h-1.1l-0.2,0.2h0.4l0.1,0.7l0,0.1l0.2,0h0.1
		l-0.2,0.7h-0.3c-0.1,0-0.1,0-0.2,0c-0.1,0-0.2-0.1-0.2-0.1c-0.1,0-0.2-0.1-0.2-0.2l-0.1-0.7l-0.5,0.7c-0.2,0.2-0.4,0.4-0.7,0.4
		h-0.7l0.2-0.6h0.3l0.2-0.1l0.1-0.1L293.2,17.1z M282.7,15.6h2.5l-0.2,0.6h-1l-0.2,0.5h1l-0.2,0.6h-1l-0.3,0.8
		c0,0.1,0.2,0.1,0.3,0.1l0.5-0.1l-0.2,0.7H283c-0.1,0-0.2,0-0.3,0c-0.1,0-0.1-0.1-0.2-0.1c0-0.1-0.1-0.1-0.1-0.3l0.3-1.1h-0.6
		l0.2-0.6h0.6l0.2-0.5h-0.6L282.7,15.6L282.7,15.6z M284.5,14.5h1l-0.2,0.6h-1.4l-0.2,0.1l-0.2,0.1c-0.1,0-0.2,0.1-0.5,0.1h-0.5
		l0.2-0.6h0.1c0.1,0,0.2,0,0.2,0c0,0,0.1-0.1,0.2-0.2l0.3-0.5h1L284.5,14.5L284.5,14.5z M286.4,15.5c0,0,0.3-0.3,0.8-0.3
		c0.1,0,0.8,0,0.8,0l0.1-0.3h-1.5L286.4,15.5L286.4,15.5z M287.8,15.8L287.8,15.8h-1.5l-0.1,0.3h1.3c0.2,0,0.2,0,0.2,0L287.8,15.8
		L287.8,15.8z M285.9,14.1L285.9,14.1h0.9l-0.1,0.4c0,0,0.3-0.2,0.5-0.3c0.2-0.1,0.6-0.1,0.6-0.1l1.4,0l-0.5,1.6
		c-0.1,0.3-0.2,0.5-0.2,0.5c-0.1,0.1-0.1,0.2-0.2,0.2c-0.1,0.1-0.2,0.1-0.3,0.1c-0.1,0-0.2,0-0.4,0h-1.4l-0.4,1.3
		c0,0.1-0.1,0.2,0,0.2l0.1,0.1l0.6-0.1l-0.2,0.7h-0.7c-0.2,0-0.4,0-0.5,0c-0.1,0-0.2,0-0.3-0.1l-0.2-0.2c0-0.1,0-0.2,0.1-0.3
		L285.9,14.1z"/>
	<path class="st159" d="M288.5,16.7l-0.1,0.4c0,0.1-0.1,0.2-0.2,0.3c-0.1,0.1-0.2,0.2-0.5,0.2l-0.5,0l0,0.4c0,0.1,0,0.1,0,0.1l0.1,0
		l0.2,0l0.5,0l-0.2,0.6h-0.5c-0.4,0-0.7,0-0.7-0.1c-0.1-0.1-0.1-0.1-0.1-0.3l0-1.7h0.9l0,0.4h0.2l0.2,0l0.1-0.1l0.1-0.3L288.5,16.7
		L288.5,16.7z M276.2,8.1c0,0.1-0.6,2.7-0.6,2.7c-0.1,0.5-0.2,0.9-0.5,1.1c-0.2,0.1-0.4,0.2-0.6,0.2c-0.4,0-0.6-0.2-0.6-0.5l0-0.1
		l0.1-0.7c0,0,0.6-2.3,0.7-2.6l0,0c-1.1,0-1.3,0-1.3,0l0,0.2l-0.6,2.6l-0.1,0.2l-0.1,0.7c0,0.2,0,0.4,0.1,0.5c0.3,0.5,1,0.5,1.5,0.5
		c0.6,0,1.1-0.1,1.4-0.3c0.6-0.4,0.8-0.9,0.9-1.4l0.1-0.3c0,0,0.6-2.4,0.7-2.7l0,0C276.6,8.1,276.3,8.1,276.2,8.1L276.2,8.1z
		 M279.5,12.9c-0.4,0-0.5,0-1,0l0,0c0-0.2,0.1-0.4,0.1-0.5l0.1-0.2c0.1-0.4,0.2-0.8,0.2-1c0-0.1,0-0.3-0.2-0.3c-0.1,0-0.2,0-0.3,0.1
		c-0.1,0.2-0.2,0.8-0.2,1c-0.1,0.5-0.1,0.6-0.2,0.9l0,0c-0.4,0-0.6,0-1,0l0,0c0.1-0.3,0.2-0.6,0.2-1c0.2-0.9,0.2-1.2,0.3-1.6l0,0
		c0.5-0.1,0.6-0.1,1.1-0.2l0,0l-0.1,0.3l0.3-0.1c0.2-0.1,0.5-0.1,0.6-0.1c0.2,0,0.5,0.1,0.6,0.3c0.1,0.2,0,0.5-0.1,1l-0.1,0.3
		C279.7,12.3,279.7,12.4,279.5,12.9L279.5,12.9L279.5,12.9z M281.2,12.9c-0.2,0-0.4,0-0.5,0c-0.2,0-0.3,0-0.5,0l0,0l0,0
		c0.1-0.2,0.1-0.3,0.1-0.4c0-0.1,0.1-0.2,0.1-0.4c0.1-0.3,0.1-0.5,0.1-0.7c0-0.2,0.1-0.3,0.1-0.5l0,0l0,0c0.2,0,0.4-0.1,0.6-0.1
		c0.2,0,0.3-0.1,0.6-0.1l0,0l0,0c0,0.2-0.1,0.4-0.1,0.6s-0.1,0.4-0.1,0.6c-0.1,0.4-0.1,0.6-0.1,0.7
		C281.3,12.6,281.3,12.7,281.2,12.9L281.2,12.9L281.2,12.9L281.2,12.9z M283.7,11.5c0,0.1-0.1,0.5-0.2,0.7c-0.1,0.1-0.2,0.2-0.3,0.2
		c0,0-0.2,0-0.2-0.3c0-0.1,0-0.3,0.1-0.5c0.1-0.5,0.2-0.9,0.6-0.9C283.8,10.7,283.9,11,283.7,11.5z M284.8,11.5L284.8,11.5
		c0.1-0.6,0-0.9-0.1-1.1c-0.2-0.3-0.6-0.4-1-0.4c-0.2,0-0.8,0-1.2,0.4c-0.3,0.3-0.5,0.7-0.5,1c-0.1,0.4-0.2,1,0.4,1.3
		c0.2,0.1,0.5,0.1,0.7,0.1c0.5,0,0.9-0.1,1.3-0.5C284.6,12.2,284.7,11.7,284.8,11.5L284.8,11.5z M294.6,13c-0.5,0-0.6,0-1.1,0l0,0
		c0.1-0.5,0.2-0.9,0.4-1.4c0.1-0.6,0.2-0.9,0.2-1.2l0,0c0.5-0.1,0.6-0.1,1.1-0.2l0,0c-0.1,0.4-0.2,0.8-0.3,1.1
		C294.7,12.1,294.7,12.5,294.6,13L294.6,13L294.6,13z"/>
	<path class="st159" d="M293.9,11.6c0,0.1-0.1,0.5-0.2,0.7c-0.1,0.1-0.3,0.2-0.4,0.2c0,0-0.2,0-0.2-0.3c0-0.1,0-0.3,0.1-0.5
		c0.1-0.5,0.2-0.8,0.6-0.8C293.9,10.8,294,11.1,293.9,11.6L293.9,11.6z M294.8,11.6L294.8,11.6c0.1-0.6-0.4-0.1-0.5-0.3
		c-0.1-0.3-0.1-1-0.6-1.2c-0.2-0.1-0.7,0-1.1,0.4c-0.3,0.3-0.5,0.7-0.5,1c-0.1,0.4-0.2,1,0.4,1.3c0.2,0.1,0.4,0.1,0.6,0.1
		c0.6,0,1.1-1,1.5-1.3C294.7,11.4,294.8,11.8,294.8,11.6z M287.5,12.9c-0.4,0-0.5,0-1,0l0,0c0-0.2,0.1-0.4,0.1-0.5l0.1-0.2
		c0.1-0.4,0.2-0.8,0.2-1c0-0.1,0-0.3-0.2-0.3c-0.1,0-0.2,0-0.3,0.1c-0.1,0.2-0.2,0.8-0.2,1c-0.1,0.5-0.1,0.6-0.2,0.9l0,0
		c-0.4,0-0.6,0-1,0l0,0c0.1-0.3,0.2-0.6,0.2-1c0.2-0.9,0.2-1.2,0.3-1.6l0,0c0.5-0.1,0.6-0.1,1.1-0.2l0,0l-0.1,0.3l0.2-0.1
		c0.2-0.1,0.5-0.1,0.6-0.1c0.2,0,0.5,0.1,0.6,0.3c0.1,0.2,0,0.5-0.1,1l-0.1,0.3C287.7,12.3,287.6,12.4,287.5,12.9L287.5,12.9
		L287.5,12.9z M291,8.1l-0.3,0c-0.9,0-1.2,0-1.4,0l0,0.2L289,9.7c0,0-0.7,3-0.8,3.2c0.8,0,1.1,0,1.2,0c0-0.1,0.2-1,0.2-1l0.2-0.6
		l0.1-0.1h0.1c0.7,0,1.4,0,2-0.4c0.4-0.3,0.7-0.7,0.8-1.2c0-0.1,0.1-0.3,0.1-0.4c0-0.2,0-0.4-0.2-0.6C292.3,8.1,291.7,8.1,291,8.1z
		 M291.4,9.6L291.4,9.6c-0.1,0.3-0.3,0.6-0.5,0.7c-0.2,0.1-0.5,0.1-0.8,0.1H290l0-0.1l0.3-1.4l0-0.1l0-0.1l0.1,0l0.7,0.1
		C291.4,9,291.5,9.3,291.4,9.6z M298.6,10.1L298.6,10.1c-0.5,0.1-0.6,0.1-1.1,0.1l0,0l0,0v0c-0.3,0.8-0.3,0.6-0.6,1.2l0-0.1
		l-0.1-1.3l0,0c-0.5,0.1-0.5,0.1-1,0.2l0,0l0,0.1l0,0c0.1,0.3,0,0.2,0.1,0.7c0,0.2,0.1,0.5,0.1,0.7c0,0.4,0.1,0.6,0.1,1.2
		c-0.3,0.5-0.4,0.7-0.7,1.2l0,0c0.5,0,0.6,0,0.9,0l0.1-0.1C296.6,13.5,298.6,10.1,298.6,10.1L298.6,10.1z M281.6,10.5
		c0.3-0.2,0.3-0.4,0.1-0.6s-0.6-0.1-0.9,0.1c-0.3,0.2-0.3,0.4-0.1,0.6C280.9,10.7,281.3,10.7,281.6,10.5z"/>
	<path class="st159" d="M296.2,14.1l-0.4,0.7c-0.1,0.2-0.4,0.4-0.7,0.4l-0.6,0l0.2-0.6h0.1l0.1,0l0.1-0.1l0.2-0.4L296.2,14.1
		L296.2,14.1z"/>
	<path class="st234" d="M310.2,0h37.5c1.2,0,2.2,1,2.2,2.2v21.6c0,1.2-1,2.2-2.2,2.2h-37.5c-1.2,0-2.2-1-2.2-2.2V2.2
		C308,1,309,0,310.2,0z"/>
	<path class="st164" d="M340.8,13.1c0-5.5-4.6-9.3-9.7-9.3h-4.4c-5.2,0-9.4,3.8-9.4,9.3c0,5,4.2,9.1,9.4,9.1h4.4
		C336.1,22.3,340.8,18.2,340.8,13.1z"/>
	<ellipse class="st234" cx="326.7" cy="13.1" rx="8.5" ry="8.4"/>
	<path class="st164" d="M321.3,13c0-2.3,1.4-4.2,3.5-5v10C322.7,17.2,321.3,15.3,321.3,13z M328.6,18v-10c2,0.8,3.5,2.7,3.5,5
		C332.1,15.3,330.6,17.2,328.6,18z"/>
	<path class="st93" d="M357,9.4h-0.3v3.4h0.3c0.7,0,1.2-0.1,1.5-0.4c0.4-0.3,0.6-0.8,0.6-1.3c0-0.5-0.2-1-0.6-1.3
		C358.2,9.5,357.7,9.4,357,9.4 M388.3,9.3H388v1.6h0.3c0.7,0,1.1-0.3,1.1-0.8C389.4,9.6,389,9.3,388.3,9.3 M363.9,26
		c18.2-3.3,28.7-10.1,30.1-11v8.2c0,1.6-1.3,2.9-3,2.9H363.9 M355.6,13.7V8.5h1.6c1.8,0,3,1.1,3,2.6c0,0.8-0.4,1.5-1,2
		c-0.5,0.4-1.2,0.6-2,0.6H355.6 M360.8,13.7V8.5h1.1v5.1H360.8 M383,13.7V8.5h3.1v0.9h-2v1.1h2v0.9h-2v1.4h2v0.9H383 M386.8,13.7
		V8.5h1.6c1.3,0,2,0.6,2,1.5c0,0.8-0.5,1.3-1.3,1.5l1.8,2.2h-1.4l-1.5-2.1H388v2.1H386.8 M382.5,8.5L382.5,8.5l-2.4,5.3h-0.6
		L377,8.5h1.2l1.5,3.5l1.5-3.5H382.5 M364.3,12.9c0.5,0,0.9-0.3,0.9-0.7c0-0.2-0.1-0.4-0.3-0.5c-0.1-0.1-0.3-0.2-0.8-0.3
		c-1-0.3-1.4-0.7-1.4-1.4c0-0.8,0.8-1.5,1.8-1.5c0.6,0,1.2,0.2,1.7,0.6l-0.6,0.7c-0.3-0.3-0.6-0.4-0.9-0.4c-0.5,0-0.8,0.2-0.8,0.6
		c0,0.3,0.2,0.4,0.9,0.6c1.3,0.4,1.6,0.8,1.6,1.6c0,1-0.8,1.7-2,1.7c-0.8,0-1.5-0.3-2-1l0.7-0.6C363.3,12.6,363.7,12.9,364.3,12.9
		 M369.6,13.8c-1.7,0-3-1.2-3-2.7c0-1.5,1.3-2.7,3-2.7c0.5,0,0.9,0.1,1.4,0.3v1.2c-0.5-0.4-0.9-0.6-1.4-0.6c-1,0-1.9,0.8-1.9,1.8
		c0,1,0.8,1.8,1.9,1.8c0.5,0,0.9-0.2,1.3-0.6v1.2C370.5,13.7,370.1,13.8,369.6,13.8 M374.4,13.8c-1.7,0-3-1.2-3-2.7v0
		c0-1.5,1.4-2.7,3-2.7s3,1.2,3,2.7v0C377.4,12.6,376,13.8,374.4,13.8 M391,0H355c-1.6,0-3,1.3-3,2.9v20.3c0,1.6,1.3,2.9,3,2.9H391
		c1.6,0,3-1.3,3-2.9v-9.2V2.9C394,1.3,392.7,0,391,0"/>
	<path class="st164" d="M356.7,12.8V9.4h0.3c0.7,0,1.1,0.1,1.5,0.4c0.4,0.3,0.6,0.8,0.6,1.3c0,0.5-0.2,1-0.6,1.3
		c-0.3,0.3-0.8,0.4-1.5,0.4H356.7 M357.3,8.5h-1.6v5.1h1.6c0.9,0,1.5-0.2,2-0.6c0.6-0.5,1-1.2,1-2C360.3,9.6,359,8.5,357.3,8.5
		 M361.9,8.5h-1.1v5.1h1.1V8.5 M386.1,8.5H383v5.1h3.1v-0.9h-2v-1.4h2v-0.9h-2V9.4h2V8.5 M388,10.9V9.3h0.3c0.7,0,1.1,0.3,1.1,0.8
		c0,0.5-0.4,0.8-1.1,0.8H388 M388.5,8.5h-1.6v5.1h1.1v-2.1h0.1l1.5,2.1h1.4l-1.8-2.2c0.8-0.2,1.3-0.7,1.3-1.5
		C390.5,9.1,389.8,8.5,388.5,8.5 M382.5,8.5h-1.2l-1.5,3.5l-1.5-3.5H377l2.4,5.3h0.6L382.5,8.5 M364.4,8.4c-1,0-1.8,0.6-1.8,1.5
		c0,0.7,0.4,1.1,1.4,1.4c0.4,0.1,0.7,0.2,0.8,0.3c0.2,0.1,0.3,0.3,0.3,0.5c0,0.4-0.4,0.7-0.9,0.7c-0.5,0-1-0.2-1.2-0.7l-0.7,0.6
		c0.5,0.7,1.1,1,2,1c1.1,0,2-0.7,2-1.7c0-0.8-0.4-1.2-1.6-1.6c-0.7-0.2-0.9-0.4-0.9-0.6c0-0.3,0.3-0.6,0.8-0.6
		c0.3,0,0.6,0.1,0.9,0.4l0.6-0.7C365.6,8.6,365,8.4,364.4,8.4 M369.6,8.4c-1.7,0-3,1.2-3,2.7c0,1.5,1.3,2.7,3,2.7
		c0.5,0,0.9-0.1,1.4-0.3v-1.2c-0.4,0.4-0.8,0.6-1.3,0.6c-1.1,0-1.9-0.7-1.9-1.8c0-1,0.8-1.8,1.9-1.8c0.5,0,0.9,0.2,1.4,0.6V8.7
		C370.5,8.5,370.1,8.4,369.6,8.4"/>
	<path class="st115" d="M394,15c-1.4,1-11.9,7.8-30.1,11H391c1.6,0,3-1.3,3-2.9V15 M374.4,8.4c-1.7,0-3,1.2-3,2.7v0
		c0,1.5,1.4,2.7,3,2.7s3-1.2,3-2.7v0C377.4,9.6,376,8.4,374.4,8.4"/>
	<path class="st232" d="M435.8,0h-37.5C397,0,396,1,396,2.2v21.6c0,1.2,1,2.2,2.2,2.2h37.5c1.2,0,2.2-1,2.2-2.2V2.2
		C438,1,437,0,435.8,0"/>
	<polyline class="st179" points="434.4,15.4 434.2,15.5 434.8,16.9 434.2,16.9 434.1,16.3 433.9,16.3 433.9,16.9 433.6,16.9 
		433.6,17.1 433.9,17.1 433.9,17.7 434.2,17.7 434.2,17.1 435.1,17.1 435.1,16.9 434.4,15.4 	"/>
	<path class="st179" d="M432.5,15.4c-0.4,0-0.7,0.3-0.7,0.5c0,0.3,0.2,0.5,0.4,0.5c-0.3,0-0.5,0.2-0.5,0.5c0,0.4,0.3,0.7,0.8,0.7
		c0.2,0,0.5-0.1,0.7-0.3l-0.2-0.1c-0.1,0.1-0.3,0.2-0.5,0.2c-0.3,0-0.5-0.2-0.5-0.4c0-0.3,0.2-0.4,0.5-0.4h0.2l0-0.2h-0.1
		c-0.2,0-0.4-0.1-0.4-0.4c0-0.2,0.2-0.4,0.4-0.4c0.2,0,0.3,0.1,0.5,0.2l0.1-0.2C433,15.5,432.8,15.4,432.5,15.4"/>
	<path class="st179" d="M430.6,15.4c-0.4,0-0.7,0.3-0.7,0.6c0,0.4,0.3,0.7,1,1.4h-1l0,0.2h1.3v-0.2c-0.8-0.8-1-1-1-1.4
		c0-0.2,0.1-0.4,0.4-0.4c0.2,0,0.3,0.1,0.5,0.2l0.2-0.1C431.1,15.5,430.9,15.4,430.6,15.4"/>
	<polyline class="st179" points="428.6,15.5 428.3,15.5 428.3,17.5 427.9,17.5 427.9,17.7 429.1,17.7 429.1,17.5 428.6,17.5 
		428.6,15.8 429.1,16.1 429.2,15.9 428.6,15.5 	"/>
	<polyline class="st179" points="424.8,15.4 424.6,15.5 425.2,16.9 424.5,16.9 424.5,16.3 424.3,16.3 424.3,16.9 424,16.9 424,17.1 
		424.3,17.1 424.3,17.7 424.5,17.7 424.5,17.1 425.4,17.1 425.4,16.9 424.8,15.4 	"/>
	<path class="st179" d="M422.9,15.4c-0.4,0-0.7,0.3-0.7,0.5c0,0.3,0.2,0.5,0.4,0.5c-0.3,0-0.5,0.2-0.5,0.5c0,0.4,0.3,0.7,0.8,0.7
		c0.2,0,0.5-0.1,0.7-0.3l-0.2-0.1c-0.1,0.1-0.3,0.2-0.5,0.2c-0.3,0-0.5-0.2-0.5-0.4c0-0.3,0.2-0.4,0.5-0.4h0.2l0-0.2h-0.1
		c-0.2,0-0.4-0.1-0.4-0.4c0-0.2,0.2-0.4,0.4-0.4c0.2,0,0.3,0.1,0.5,0.2l0.1-0.2C423.3,15.5,423.1,15.4,422.9,15.4"/>
	<path class="st179" d="M420.9,15.4c-0.4,0-0.7,0.3-0.7,0.6c0,0.4,0.3,0.7,1,1.4h-1l0,0.2h1.3v-0.2c-0.8-0.8-1-1-1-1.4
		c0-0.2,0.1-0.4,0.4-0.4c0.2,0,0.3,0.1,0.5,0.2l0.2-0.1C421.4,15.5,421.2,15.4,420.9,15.4"/>
	<polyline class="st179" points="418.9,15.5 418.7,15.5 418.7,17.5 418.2,17.5 418.2,17.7 419.5,17.7 419.5,17.5 418.9,17.5 
		418.9,15.8 419.5,16.1 419.6,15.9 418.9,15.5 	"/>
	<polyline class="st179" points="415.1,15.4 414.9,15.5 415.5,16.9 414.9,16.9 414.8,16.3 414.6,16.3 414.6,16.9 414.3,16.9 
		414.3,17.1 414.6,17.1 414.6,17.7 414.9,17.7 414.9,17.1 415.8,17.1 415.8,16.9 415.1,15.4 	"/>
	<path class="st179" d="M413.2,15.4c-0.4,0-0.7,0.3-0.7,0.5c0,0.3,0.2,0.5,0.4,0.5c-0.3,0-0.5,0.2-0.5,0.5c0,0.4,0.3,0.7,0.8,0.7
		c0.2,0,0.5-0.1,0.7-0.3l-0.2-0.1c-0.1,0.1-0.3,0.2-0.5,0.2c-0.3,0-0.5-0.2-0.5-0.4c0-0.3,0.2-0.4,0.5-0.4h0.2l0-0.2h-0.1
		c-0.2,0-0.4-0.1-0.4-0.4c0-0.2,0.2-0.4,0.4-0.4c0.2,0,0.3,0.1,0.5,0.2l0.1-0.2C413.7,15.5,413.4,15.4,413.2,15.4"/>
	<path class="st179" d="M411.3,15.4c-0.4,0-0.7,0.3-0.7,0.6c0,0.4,0.3,0.7,1,1.4h-1l0,0.2h1.3v-0.2c-0.8-0.8-1-1-1-1.4
		c0-0.2,0.1-0.4,0.4-0.4c0.2,0,0.3,0.1,0.5,0.2l0.2-0.1C411.8,15.5,411.6,15.4,411.3,15.4"/>
	<polyline class="st179" points="409.3,15.5 409,15.5 409,17.5 408.6,17.5 408.6,17.7 409.8,17.7 409.8,17.5 409.3,17.5 409.3,15.8 
		409.8,16.1 409.9,15.9 409.3,15.5 	"/>
	<polyline class="st179" points="405.5,15.4 405.3,15.5 405.8,16.9 405.2,16.9 405.2,16.3 404.9,16.3 404.9,16.9 404.7,16.9 
		404.7,17.1 404.9,17.1 404.9,17.7 405.2,17.7 405.2,17.1 406.1,17.1 406.1,16.9 405.5,15.4 	"/>
	<path class="st179" d="M403.6,15.4c-0.4,0-0.7,0.3-0.7,0.5c0,0.3,0.2,0.5,0.4,0.5c-0.3,0-0.5,0.2-0.5,0.5c0,0.4,0.3,0.7,0.8,0.7
		c0.2,0,0.5-0.1,0.7-0.3l-0.2-0.1c-0.1,0.1-0.3,0.2-0.5,0.2c-0.3,0-0.5-0.2-0.5-0.4c0-0.3,0.2-0.4,0.5-0.4h0.2l0-0.2h-0.1
		c-0.2,0-0.4-0.1-0.4-0.4c0-0.2,0.2-0.4,0.4-0.4c0.2,0,0.3,0.1,0.5,0.2l0.1-0.2C404,15.5,403.8,15.4,403.6,15.4"/>
	<path class="st179" d="M401.6,15.4c-0.4,0-0.7,0.3-0.7,0.6c0,0.4,0.3,0.7,1,1.4h-1l0,0.2h1.3v-0.2c-0.8-0.8-1-1-1-1.4
		c0-0.2,0.1-0.4,0.4-0.4c0.2,0,0.3,0.1,0.5,0.2l0.2-0.1C402.1,15.5,401.9,15.4,401.6,15.4"/>
	<polyline class="st179" points="399.6,15.5 399.4,15.5 399.4,17.5 398.9,17.5 398.9,17.7 400.2,17.7 400.2,17.5 399.6,17.5 
		399.6,15.8 400.1,16.1 400.3,15.9 399.6,15.5 	"/>
	<polyline class="st179" points="434.5,21.5 434.3,21.5 434.3,22.9 433.9,22.9 433.9,23.1 434.9,23.1 434.9,22.9 434.5,22.9 
		434.5,21.7 434.9,21.8 434.9,21.6 434.5,21.5 	"/>
	<polyline class="st179" points="433.1,21.5 432.9,21.5 432.9,22.9 432.5,22.9 432.5,23.1 433.5,23.1 433.5,22.9 433.1,22.9 
		433.1,21.7 433.5,21.8 433.5,21.6 433.1,21.5 	"/>
	<path class="st179" d="M431,21.5c-0.2,0-0.3,0-0.4,0.1s-0.2,0.2-0.2,0.3l0,0.2l0.1,0.2c0,0,0.1,0.1,0.2,0.2s0.2,0.2,0.4,0.4h-0.8
		v0.2h1v-0.2c-0.1-0.1-0.2-0.2-0.3-0.3c-0.1-0.1-0.2-0.2-0.3-0.3l-0.1-0.2l0-0.2l0.1-0.2c0.1-0.1,0.1-0.1,0.2-0.1l0.2,0l0.2,0.1
		v-0.2l-0.2-0.1L431,21.5"/>
	<path class="st179" d="M429.5,21.5c-0.2,0-0.3,0-0.4,0.1c-0.1,0.1-0.1,0.2-0.1,0.3l0.1,0.2c0.1,0.1,0.1,0.1,0.2,0.1
		c-0.1,0-0.2,0.1-0.2,0.1s-0.1,0.2-0.1,0.3c0,0.2,0.1,0.3,0.2,0.4c0.1,0.1,0.3,0.1,0.5,0.1l0.2,0l0.2-0.1v-0.2l-0.2,0.1l-0.2,0
		c-0.1,0-0.2,0-0.3-0.1c-0.1-0.1-0.1-0.1-0.1-0.2c0-0.1,0-0.2,0.1-0.2c0.1-0.1,0.2-0.1,0.3-0.1h0.2v-0.2h-0.2c-0.1,0-0.2,0-0.3-0.1
		l-0.1-0.2l0.1-0.2c0.1,0,0.1-0.1,0.3-0.1l0.2,0l0.2,0.1v-0.2l-0.2-0.1L429.5,21.5"/>
	<path class="st179" d="M427.8,21.5h-0.9v0.2h0.7v0.4l-0.1,0l-0.1,0c-0.2,0-0.3,0-0.4,0.1c-0.1,0.1-0.2,0.2-0.2,0.4
		c0,0.2,0.1,0.3,0.2,0.4s0.3,0.1,0.5,0.1l0.2,0l0.2-0.1v-0.2l-0.2,0.1l-0.2,0c-0.1,0-0.2,0-0.3-0.1c-0.1-0.1-0.1-0.2-0.1-0.3
		s0-0.2,0.1-0.3c0.1-0.1,0.2-0.1,0.3-0.1l0.2,0l0.2,0.1V21.5"/>
	<path class="st179" d="M425.9,23c-0.1,0-0.2,0-0.2-0.1c-0.1-0.1-0.1-0.1-0.1-0.2s0-0.2,0.1-0.2c0.1-0.1,0.1-0.1,0.2-0.1
		c0.1,0,0.2,0,0.2,0.1c0.1,0.1,0.1,0.1,0.1,0.2c0,0.1,0,0.2-0.1,0.2C426.1,22.9,426,23,425.9,23 M425.9,22.2c-0.1,0-0.2,0-0.2-0.1
		l-0.1-0.2l0.1-0.2c0.1,0,0.1-0.1,0.2-0.1c0.1,0,0.2,0,0.2,0.1l0.1,0.2l-0.1,0.2C426.1,22.2,426,22.2,425.9,22.2 M425.9,21.5
		c-0.2,0-0.3,0-0.4,0.1c-0.1,0.1-0.1,0.2-0.1,0.3c0,0.1,0,0.2,0.1,0.2c0.1,0.1,0.1,0.1,0.2,0.1c-0.1,0-0.2,0.1-0.2,0.1
		s-0.1,0.2-0.1,0.3c0,0.2,0,0.3,0.1,0.4s0.2,0.1,0.4,0.1c0.2,0,0.3,0,0.4-0.1s0.1-0.2,0.1-0.4c0-0.1,0-0.2-0.1-0.3
		c-0.1-0.1-0.1-0.1-0.2-0.1c0.1,0,0.2-0.1,0.2-0.1c0.1-0.1,0.1-0.1,0.1-0.2c0-0.1,0-0.2-0.1-0.3C426.2,21.5,426.1,21.5,425.9,21.5"
		/>
	<polyline class="st179" points="420.3,21.5 420.1,21.5 420.1,22.9 419.8,22.9 419.8,23.1 420.7,23.1 420.7,22.9 420.3,22.9 
		420.3,21.7 420.7,21.7 420.7,21.5 420.3,21.5 	"/>
	<path class="st179" d="M418.9,21.4c-0.2,0-0.3,0-0.4,0.1s-0.1,0.2-0.1,0.3l0.1,0.2c0.1,0.1,0.1,0.1,0.2,0.1c-0.1,0-0.2,0.1-0.2,0.1
		s-0.1,0.2-0.1,0.3c0,0.2,0.1,0.3,0.2,0.4c0.1,0.1,0.3,0.1,0.5,0.1l0.2,0l0.2-0.1v-0.2l-0.2,0.1l-0.2,0c-0.1,0-0.2,0-0.3-0.1
		c-0.1-0.1-0.1-0.1-0.1-0.2c0-0.1,0-0.2,0.1-0.2c0.1-0.1,0.2-0.1,0.3-0.1h0.2v-0.2h-0.2c-0.1,0-0.2,0-0.2-0.1l-0.1-0.2l0.1-0.2
		c0.1,0,0.1-0.1,0.3-0.1l0.2,0l0.2,0.1v-0.2l-0.2-0.1L418.9,21.4"/>
	<path class="st179" d="M417.5,21.4c-0.2,0-0.3,0-0.4,0.1c-0.1,0.1-0.2,0.2-0.2,0.3l0,0.2l0.1,0.2c0,0,0.1,0.1,0.2,0.2
		s0.2,0.2,0.4,0.4h-0.8v0.2h1v-0.2c-0.1-0.1-0.2-0.2-0.3-0.3c-0.1-0.1-0.2-0.2-0.3-0.3l-0.1-0.2l0-0.2l0.1-0.2
		c0.1-0.1,0.1-0.1,0.2-0.1l0.2,0l0.2,0.1v-0.2l-0.2-0.1L417.5,21.4"/>
	<polyline class="st179" points="416.1,21.5 415.8,21.5 415.8,22.9 415.5,22.9 415.5,23.1 416.4,23.1 416.4,22.9 416.1,22.9 
		416.1,21.7 416.5,21.7 416.5,21.5 416.1,21.5 	"/>
	<path class="st179" d="M413.9,21.4c-0.2,0-0.3,0-0.4,0.1s-0.1,0.2-0.1,0.3l0.1,0.2c0.1,0.1,0.1,0.1,0.2,0.1c-0.1,0-0.2,0.1-0.2,0.1
		c-0.1,0.1-0.1,0.2-0.1,0.3c0,0.2,0.1,0.3,0.2,0.4s0.3,0.1,0.5,0.1l0.2,0l0.2-0.1v-0.2l-0.2,0.1l-0.2,0c-0.1,0-0.2,0-0.3-0.1
		c-0.1-0.1-0.1-0.1-0.1-0.2c0-0.1,0-0.2,0.1-0.2c0.1-0.1,0.2-0.1,0.3-0.1h0.2v-0.2h-0.2c-0.1,0-0.2,0-0.2-0.1l-0.1-0.2l0.1-0.2
		c0.1,0,0.1-0.1,0.3-0.1l0.2,0l0.2,0.1v-0.2l-0.2-0.1L413.9,21.4"/>
	<path class="st179" d="M412.3,22.5v-0.9l0.6,0.9H412.3 M412.3,21.5h-0.3v1h-0.2v0.2h0.2v0.4h0.2v-0.4h0.7v-0.2L412.3,21.5"/>
	<path class="st179" d="M411.5,21.5h-0.9v0.2h0.7V22l-0.1,0l-0.1,0c-0.2,0-0.3,0-0.4,0.1s-0.2,0.2-0.2,0.4c0,0.2,0.1,0.3,0.2,0.4
		s0.3,0.1,0.5,0.1l0.2,0l0.2-0.1v-0.2l-0.2,0.1l-0.2,0c-0.1,0-0.2,0-0.3-0.1s-0.1-0.2-0.1-0.3c0-0.1,0-0.2,0.1-0.3s0.2-0.1,0.3-0.1
		l0.2,0l0.2,0.1V21.5"/>
	<path class="st179" d="M410,21.5h-0.9v0.2h0.7V22l-0.1,0l-0.1,0c-0.2,0-0.3,0-0.4,0.1c-0.1,0.1-0.2,0.2-0.2,0.4
		c0,0.2,0.1,0.3,0.2,0.4s0.3,0.1,0.5,0.1l0.2,0l0.2-0.1v-0.2l-0.2,0.1l-0.2,0c-0.1,0-0.2,0-0.3-0.1c-0.1-0.1-0.1-0.2-0.1-0.3
		c0-0.1,0-0.2,0.1-0.3c0.1-0.1,0.2-0.1,0.3-0.1l0.2,0l0.2,0.1V21.5"/>
	<rect x="396" y="2.9" class="st185" width="42" height="5.6"/>
	<rect x="396.9" y="9.8" class="st164" width="31.5" height="4.4"/>
	<polygon points="423.9,12.7 423.5,12.7 423.5,11 423.3,11 422.8,11.4 422.9,11.5 423.3,11.3 423.3,12.7 422.8,12.7 422.8,12.9 
		423.9,12.9 	"/>
	<path d="M424.9,11c-0.3,0-0.4,0.1-0.6,0.3l0.2,0.1c0.1-0.1,0.2-0.2,0.4-0.2c0.2,0,0.3,0.1,0.3,0.3c0,0.3-0.2,0.5-0.9,1.2v0.2h1.1
		l0-0.2h-0.9c0.6-0.6,0.9-0.9,0.9-1.2C425.5,11.2,425.3,11,424.9,11z"/>
	<path d="M426.6,11c-0.2,0-0.4,0.1-0.5,0.2l0.1,0.1c0.1-0.1,0.2-0.2,0.4-0.2c0.2,0,0.4,0.1,0.4,0.3c0,0.2-0.2,0.3-0.4,0.3h-0.1
		l0,0.2h0.2c0.2,0,0.4,0.1,0.4,0.4c0,0.2-0.2,0.4-0.4,0.4c-0.2,0-0.3-0.1-0.4-0.2l-0.2,0.1c0.1,0.2,0.4,0.3,0.6,0.3
		c0.4,0,0.7-0.2,0.7-0.6c0-0.3-0.2-0.4-0.4-0.5c0.2,0,0.4-0.2,0.4-0.4C427.2,11.2,427,11,426.6,11z"/>
	<path class="st281" d="M398.3,17.1h4.6c0.8,0,1.4,0.6,1.4,1.4V21c0,0.8-0.6,1.4-1.4,1.4h-4.6c-0.8,0-1.4-0.6-1.4-1.4v-2.5
		C396.9,17.7,397.5,17.1,398.3,17.1z"/>
</g>
</svg>
